<svg width="18px" id="Layer_2" data-name="Layer 2" xmlns="http://www.w3.org/2000/svg"
            viewBox="0 0 125.01 83.4">
            <g id="Layer_1-2" data-name="Layer 1">
              <path class="svg-main"
                d="m62.51,83.4c-20,0-40,0-60,0-2.98,0-2.48.33-2.48-2.53,0-26.17,0-52.33,0-78.5C.03-.5.01.04,2.39.04c39.54,0,79.08,0,118.62,0,.87,0,1.75.08,2.62.01,1.13-.08,1.38.4,1.38,1.46-.03,22.67-.02,45.33-.02,68,0,4.17-.04,8.33.02,12.5.01,1.07-.38,1.39-1.38,1.37-2.58-.03-5.17,0-7.75,0-17.79,0-35.58,0-53.37,0v.02Zm.23-6.95h0c15.62,0,31.25-.03,46.87.03,1.3,0,1.51-.47,1.51-1.59,0-4.89-.88-9.62-2.54-14.19-6-16.58-17.5-27.21-34.64-31.49-10.01-2.5-19.89-1.78-29.54,1.97-7.43,2.89-13.62,7.49-18.8,13.46-6.98,8.02-10.77,17.41-11.58,27.99-.29,3.78-.19,3.81,3.6,3.81,15.04,0,30.08,0,45.12,0Z" />
            </g>
</svg>