<?xml version="1.0" encoding="UTF-8"?>
<svg id="Layer_2" xmlns="http://www.w3.org/2000/svg" viewBox="0 0 617 281.67">
  <defs>
    <style>
      .cls-1 {
        fill: #fff;
      }
    </style>
  </defs>
  <g id="Layer_1-2" data-name="Layer_1">
    <path class="cls-1" d="M594.65,0H22.36C10.01,0,0,10.01,0,22.35s10.01,22.36,22.36,22.36h572.29c12.35,0,22.35-10.01,22.35-22.36,0-12.35-10.01-22.35-22.35-22.35h0Z"/>
    <path class="cls-1" d="M261.55,190.01c-6.17,0-11.18-5.01-11.18-11.18s5.01-11.18,11.18-11.18,11.18,5.01,11.18,11.18c0,6.18-5.01,11.18-11.18,11.18h0ZM386.74,73.77h-156.48v207.9h156.49V73.77h-.01Z"/>
    <path class="cls-1" d="M449.34,190.01c-6.17,0-11.18-5.01-11.18-11.18s5.01-11.18,11.18-11.18,11.18,5.01,11.18,11.18c-.01,6.18-5.01,11.18-11.18,11.18h0ZM581.23,250.91V73.77h-165.43v207.9h134.67c16.99,0,30.76-13.77,30.76-30.76h0Z"/>
    <polygon class="cls-1" points="35.77 163.19 201.2 163.19 201.2 73.77 35.77 73.77 35.77 163.19"/>
    <path class="cls-1" d="M35.77,250.91c0,16.99,13.77,30.76,30.76,30.76h134.67v-89.42H35.77v58.66h0Z"/>
  </g>
</svg>