<?xml version="1.0" encoding="UTF-8"?>
<svg id="Layer_2" xmlns="http://www.w3.org/2000/svg" viewBox="0 0 9 12">
  <defs>
    <style>
      .cls-1 {
        fill: #fff;
      }
    </style>
  </defs>
  <g id="Layer_2-2" data-name="Layer_2">
    <path class="cls-1" d="M5.25,3.19V0H.56c-.31,0-.56.25-.56.56v10.88c0,.31.25.56.56.56h7.88c.31,0,.56-.25.56-.56V3.75h-3.19c-.31,0-.56-.25-.56-.56ZM6.66,5.68l-1.41,2.19,1.41,2.19c.12.19-.01.43-.24.43h-.82c-.1,0-.2-.06-.25-.15-.46-.85-.86-1.61-.86-1.61-.15.35-.23.47-.86,1.61-.05.09-.14.15-.25.15h-.82c-.22,0-.36-.25-.24-.43l1.41-2.19-1.41-2.19c-.12-.19,0-.43.24-.43h.82c.1,0,.2.06.25.15.61,1.14.47.79.86,1.61,0,0,.14-.27.86-1.61.05-.09.15-.15.25-.15h.82c.22,0,.36.24.24.43ZM9,2.86v.14h-3V0h.14c.15,0,.29.06.4.16l2.29,2.3c.11.11.16.25.16.4h.01Z"/>
  </g>
</svg>