<?xml version="1.0" encoding="UTF-8"?>
<svg id="Layer_2" xmlns="http://www.w3.org/2000/svg" viewBox="0 0 367 367">
  <defs>
    <style>
      .cls-1 {
        fill: #fff;
      }
    </style>
  </defs>
  <g id="Layer_1-2" data-name="Layer_1">
    <path class="cls-1" d="M359.69,95.11s-.02.01-.02.02l-106.44,109.62,44.91,43.53,65.92-72.2c.79-.86,1.87-1.29,2.95-1.29v-87.22l-7.3,7.52s-.01.01-.02.02Z"/>
    <path class="cls-1" d="M43.14,295.66l93.38-94.41-46.64-48.8L2.89,243.24c-.79.82-1.84,1.23-2.89,1.23v10.89c1,0,2.01.37,2.79,1.12l40.35,39.18Z"/>
    <polygon class="cls-1" points="0 52.07 0 121.63 36.71 86.65 0 52.07"/>
    <path class="cls-1" d="M150.28,89.4l47.61,49.79,100.93-102.04s.01-.02.02-.02c.01-.01.02-.02.03-.03L335.56,0h-101.17c0,1-.36,1.99-1.1,2.77l-83.01,86.64Z"/>
    <polygon class="cls-1" points="0 264.92 0 339.27 37.51 301.34 0 264.92"/>
    <path class="cls-1" d="M136.21,2.9l-10.51,10.02,45.46,43.14L224.86,0h-87.42c0,1.06-.41,2.11-1.23,2.9Z"/>
    <polygon class="cls-1" points="0 162.86 0 234.69 36.19 196.92 0 162.86"/>
    <path class="cls-1" d="M41.72,191.14l45.33-47.31s.03-.04.05-.06c0,0,.02-.01.03-.02l78.49-81.92-45.73-43.39L2.76,130.06c-.77.74-1.77,1.1-2.76,1.1,0,0,0,0,0,0v22.22c.98,0,1.97.35,2.74,1.08l38.98,36.68Z"/>
    <path class="cls-1" d="M42.51,81.13L127.65,0H0v42.59c.98,0,1.97.35,2.74,1.08l39.77,37.46Z"/>
    <path class="cls-1" d="M142.7,307.08l-51.21-48.93-45.38,45.88s-.02.03-.03.04c-.01.01-.03.02-.05.04L2.84,347.77c-.78.79-1.81,1.19-2.84,1.19v18.04h86.09c0-1,.37-2.01,1.13-2.79l55.48-57.13Z"/>
    <path class="cls-1" d="M307.44,39.81l49.23,46.91,7.45-7.67c.79-.81,1.83-1.21,2.87-1.21V0h-21.81c0,1.02-.38,2.03-1.15,2.81l-36.59,37Z"/>
    <path class="cls-1" d="M290.85,361.18l73.26-76.89c.79-.82,1.84-1.23,2.9-1.23v-98.35l-119.31,130.68,43.16,45.79Z"/>
    <polygon class="cls-1" points="192.26 144.89 144.74 95.19 95.41 146.67 142.14 195.56 192.26 144.89"/>
    <polygon class="cls-1" points="351.1 92.46 301.82 45.5 249.93 97.96 300.81 144.25 351.1 92.46"/>
    <polygon class="cls-1" points="367 367 367 292.85 296.36 367 367 367"/>
    <path class="cls-1" d="M292.73,254.19l-45.08-43.71-151.98,156.51h95.5c0-.96.33-1.93,1.03-2.7l100.53-110.11Z"/>
    <polygon class="cls-1" points="200.57 367 285.33 367 242.28 321.31 200.57 367"/>
    <path class="cls-1" d="M244.7,202.03l50.53-52.04-50.93-46.35-96.53,97.59,50.17,48.94,46.73-48.13s0-.01.01-.02c0,0,.01,0,.02-.01Z"/>
    <polygon class="cls-1" points="97.11 252.46 148.27 301.34 192.37 255.93 142.15 206.93 97.11 252.46"/>
  </g>
</svg>