<?xml version="1.0" encoding="UTF-8"?>
<svg id="Layer_2" xmlns="http://www.w3.org/2000/svg" viewBox="0 0 323.57 393.3">
  <defs>
    <style>
      .cls-1 {
        fill: #fff;
        fill-rule: evenodd;
      }
    </style>
  </defs>
  <g id="Layer_1-2" data-name="Layer_1">
    <path class="cls-1" d="M200.23,0l16.01,49.35h51.94l-16.11,49.56,41.95,30.45-38.96,28.27c-2.23-3.74-4.46-7.49-6.69-11.25h-38.91c1.76-5.35,2.64-11.05,2.64-17.13,0-14.86-5.25-27.54-15.76-38.05-10.51-10.51-23.19-15.76-38.05-15.76s-27.54,5.25-38.05,15.76c-10.51,10.51-15.76,23.19-15.76,38.05,0,6.07.87,11.78,2.63,17.13-.03.04-.06.07-.1.1h-39.12l-6.69,11.14-38.96-28.37,41.95-30.45-16.06-49.45h51.93L116.07,0l42.05,30.6L200.23,0Z"/>
    <polygon class="cls-1" points="214.01 192.49 170.34 192.49 190.51 158.54 234.18 158.54 214.01 192.49"/>
    <polygon class="cls-1" points="176.42 158.54 156.25 192.49 112.48 192.49 132.64 158.54 176.42 158.54"/>
    <polygon class="cls-1" points="98.39 192.49 54.72 192.49 74.88 158.54 118.56 158.54 98.39 192.49"/>
    <polygon class="cls-1" points="27.36 238.59 47.52 204.65 91.2 204.65 71.03 238.59 27.36 238.59"/>
    <polygon class="cls-1" points="149.06 204.65 128.89 238.59 85.12 238.59 105.28 204.65 149.06 204.65"/>
    <polygon class="cls-1" points="163.15 204.65 206.82 204.65 186.66 238.59 142.98 238.59 163.15 204.65"/>
    <polygon class="cls-1" points="135.79 250.76 179.46 250.76 159.3 284.7 115.62 284.7 135.79 250.76"/>
    <polygon class="cls-1" points="77.92 250.76 121.7 250.76 101.53 284.7 57.81 284.7 77.92 250.76"/>
    <polygon class="cls-1" points="43.67 284.7 0 284.7 20.16 250.76 63.84 250.76 43.67 284.7"/>
    <path class="cls-1" d="M233.22,296.66c4.85-16.82,9.69-33.64,14.54-50.46h-3.14l-57.2,71.59h32.43l-14.54,50.41h3.14l57.1-71.34.1-.15v-.05h-32.43ZM290.11,388.46l.07,4.84-265.87-.28v-25.77s.01-.97.01-.97v-69.41h141.72l.15-.15,78.64-132.14v-.25l.1.1,78.64,132.45h-33.59l.05.1v69.26l-.04,11.86.12,10.36Z"/>
  </g>
</svg>