<?xml version="1.0" standalone="no"?>
<!DOCTYPE svg PUBLIC "-//W3C//DTD SVG 1.1//EN" "http://www.w3.org/Graphics/SVG/1.1/DTD/svg11.dtd" >
<svg xmlns="http://www.w3.org/2000/svg">
<metadata>Generated by IcoMoon</metadata>
<defs>
<font id="lexarIcons" horiz-adv-x="1024">
<font-face units-per-em="1024" ascent="960" descent="-64" />
<missing-glyph horiz-adv-x="1024" />
<glyph unicode="&#x20;" horiz-adv-x="512" d="" />
<glyph unicode="&#xe900;" glyph-name="321" d="M274.871 163.913h-28.965v-43.008h489.472l-149.065 179.054-19.017-22.382 106.35-127.707h-398.775v14.043zM307.639 634.514v-45.349l95.817-115.127 19.017 22.382-114.834 138.094zM245.906 708.681v-21.65h18.139l-18.139 21.65zM208.311 812.69l263.461-316.416-68.462-80.603-90.697 108.837v-336.896h280.722l-76.946 92.453 5.12 1.755 65.243 76.654 229.083-275.017h-607.525v118.199h61.733v20.041h-61.733v41.106h61.733v19.895h-61.733v41.106h61.733v20.041h-61.733v41.106h61.733v20.041h-61.733v41.106h61.733v20.041h-61.733v41.106h61.733v20.041h-61.733v41.106h61.733v20.041h-61.733v41.106h61.733v20.041h-61.733v163.109zM457.289 284.306c-5.12 11.703-12.873 22.528-23.259 31.305s-22.235 14.775-34.523 17.847l15.506 46.958 251.173 295.205c9.509 11.118 26.185 12.434 37.303 3.072l45.787-39.058c11.118-9.509 12.434-26.185 3.072-37.303l-251.173-295.205-43.886-22.821zM469.723 333.312l7.461 3.95 239.031 281.161-28.672 24.43-239.031-281.161-2.633-8.046c4.389-2.926 8.631-5.998 12.581-9.362 3.95-3.511 7.753-7.168 11.264-10.971zM368.347 238.226l70.51 36.571c-3.803 9.362-9.947 17.993-18.139 25.015s-17.701 11.557-27.648 13.897l-24.722-75.483z" />
<glyph unicode="&#xe901;" glyph-name="322" d="M197.74 317.192h116.846c12.6 0 22.912 10.309 22.912 22.912v105.39c0 12.6-10.309 22.912-22.912 22.912h-116.846c-12.6 0-22.912-10.309-22.912-22.912v-105.39c0-12.6 10.309-22.912 22.912-22.912zM500.163 296h-302.423c-12.6 0-22.912-10.309-22.912-22.912v-105.39c0-12.6 10.309-22.912 22.912-22.912h302.423c12.6 0 22.912 10.309 22.912 22.912v105.39c-0.003 12.603-10.312 22.912-22.912 22.912zM869.028 296h-302.426c-12.6 0-22.912-10.309-22.912-22.912v-105.39c0-12.6 10.309-22.912 22.912-22.912h302.423c12.6 0 22.912 10.309 22.912 22.912v105.39c0 12.603-10.309 22.912-22.909 22.912zM386.181 468.403c-12.6 0-22.912-10.309-22.912-22.912v-105.39c0-12.6 10.309-22.912 22.912-22.912h302.423c12.6 0 22.912 10.309 22.912 22.912v105.39c0 12.6-10.309 22.912-22.912 22.912h-302.423zM197.74 489.024h302.423c12.6 0 22.912 10.309 22.912 22.912v105.39c0 12.6-10.309 22.912-22.912 22.912h-302.423c-12.6 0-22.912-10.309-22.912-22.912v-105.39c0-12.603 10.309-22.912 22.912-22.912zM597.949 529.283c1.032 0 2.079 0.105 3.128 0.317l212.557 43.018c6.628 1.341 11.374 6.551 12.096 13.276 0.722 6.723-2.813 12.823-9.006 15.537l-76.332 33.48v53.967l17.656 10.627c7.939-7.544 19.873-10.26 30.656-5.932l85.148 34.191c14.717 5.911 21.924 22.789 16.015 37.507v0c-5.911 14.717-22.789 21.924-37.507 16.015l-85.148-34.191c-12.987-5.215-20.119-18.967-17.559-32.241l-26.744-16.097v-56.182l-50.424 22.116c-6.881 3.018-14.825 0.62-18.888-5.699l-68.321-106.278c-3.361-5.228-3.269-11.663 0.238-16.794 2.906-4.247 7.488-6.638 12.434-6.638z" />
<glyph unicode="&#xe902;" glyph-name="323" d="M317.42 240.067v62.259l-117.371-117.371h62.259c30.433 0.041 55.091 24.699 55.112 55.112zM390.881 240.067v110.182c0.041 43.93 35.656 79.524 79.585 79.585h79.585v48.968h-367.309v-48.968h79.585c43.93-0.041 79.524-35.656 79.585-79.585v-110.182c-0.041-43.93-35.656-79.524-79.585-79.585h-79.585v-48.968h367.288v48.968h-79.585c-43.909 0.061-79.503 35.656-79.565 79.585zM851.067 797.143h-357.171l-293.827-293.847h357.151zM574.525 485.99v-38.851l293.847 293.847v38.83zM574.525 167.834v-37.949l223.764 234.926 70.083 70.103v38.83l-52.552-52.572zM851.067 491.049h-62.259c-1.044 0.061-2.068 0.287-3.052 0.614-0.983-0.348-2.028-0.553-3.052-0.614-34.161 0.061-64.471 21.873-75.366 54.231l-136.356-136.356c-2.294-2.294-5.407-3.584-8.663-3.584h-91.832c-30.413-0.041-55.071-24.678-55.091-55.091v-110.182c0.041-30.413 24.678-55.071 55.091-55.091h86.569l241.234 253.297 52.777 52.777zM473.047 225.874c-3.502-3.523-8.786-4.588-13.394-2.683-4.588 1.905-7.578 6.41-7.557 11.387 0 6.758 5.489 12.247 12.247 12.247s12.247-5.489 12.247-12.247c0.041-3.277-1.249-6.41-3.543-8.704zM522.179 277.381l-12.247-12.82c-4.669-4.895-12.411-5.079-17.306-0.41s-5.079 12.411-0.41 17.306l12.247 12.82c3.011 3.174 7.496 4.485 11.756 3.441 4.26-1.024 7.639-4.26 8.868-8.458 1.208-4.178 0.123-8.704-2.908-11.878zM571.146 328.684l-12.247-12.82c-4.669-4.895-12.411-5.079-17.306-0.41s-5.079 12.411-0.41 17.306l12.247 12.82c4.669 4.895 12.411 5.079 17.306 0.41 4.895-4.649 5.079-12.411 0.41-17.306zM620.134 379.986l-12.247-12.82c-4.669-4.895-12.411-5.079-17.306-0.41s-5.079 12.411-0.41 17.306l12.247 12.82c4.669 4.895 12.411 5.079 17.306 0.41 4.895-4.649 5.079-12.411 0.41-17.306zM669.102 431.288l-12.247-12.82c-3.011-3.174-7.496-4.485-11.756-3.441-4.26 1.024-7.639 4.26-8.868 8.458s-0.123 8.724 2.888 11.899l12.247 12.82c4.669 4.895 12.411 5.079 17.306 0.41 4.915-4.669 5.1-12.431 0.43-17.326zM705.659 469.627c-2.273-2.355-5.427-3.666-8.684-3.666s-6.41 1.331-8.684 3.666c-2.314 2.232-3.604 5.345-3.543 8.581-0.020 4.977 2.949 9.462 7.557 11.387 4.588 1.905 9.892 0.84 13.394-2.683 2.253-2.335 3.523-5.448 3.543-8.684 0.020-3.256-1.27-6.349-3.584-8.602z" />
<glyph unicode="&#xe903;" glyph-name="324" d="M205.489 500.086h612.923l64.689-37.317c4.825-2.757 11.028-1.182 13.785 3.742l27.766 48.148c2.757 4.825 1.083 11.028-3.742 13.785l-398.769 230.203c-6.302 3.643-13.982 3.643-20.185 0l-398.966-230.302c-4.825-2.757-6.498-8.96-3.742-13.785l27.766-48.148c2.757-4.825 8.96-6.498 13.785-3.742l64.689 37.415zM512 706.166c-6.892-3.938-327.975-189.342-370.609-213.957l-12.603 21.858 383.212 221.243 383.311-221.243-12.603-21.858c-172.308 99.348-198.302 114.511-370.708 213.957zM512 694.548l9.649-5.514v-128.295h-19.298c0 45.982 0 75.126 0 128.295l9.649 5.514zM677.12 560.64h-19.397v38.597l9.649 5.514 9.748-5.612v-38.498zM570.782 560.64h-38.597l105.846 61.145c21.366-12.308 9.354-5.415 19.298-11.126 0 0-13.194-7.582-86.548-50.018zM491.914 560.64h-38.597c-74.831 43.225-86.548 50.018-86.548 50.018 0.689 0.394 10.929 6.302 19.298 11.126l105.846-61.145zM366.277 599.237v-38.597h-19.397v38.597l9.649 5.514 9.748-5.514zM262.597 550.498c198.203 0 52.283 0 498.708 0l43.717-25.206h-586.043l43.618 25.206zM501.858 428.702l-398.868-230.302c-4.825-2.757-6.498-8.96-3.742-13.785l27.766-48.049c2.757-4.825 8.96-6.498 13.785-3.742l64.689 37.317h612.923l64.689-37.317c4.825-2.757 11.028-1.182 13.785 3.742l27.766 48.148c2.757 4.825 1.182 11.028-3.742 13.785l-398.769 230.203c-6.302 3.643-13.982 3.643-20.283 0zM512 376.222c0 0-275.397-159.114-370.609-214.055l-12.603 21.858 383.212 221.342 383.311-221.342-12.603-21.858c-138.732 80.049-370.708 214.055-370.708 214.055zM218.978 195.348l43.717 25.206c49.92 0 449.871 0 498.708 0l43.717-25.206h-586.142zM512 364.603l9.649-5.514v-128.394h-19.298v128.295l9.649 5.612z" />
<glyph unicode="&#xe904;" glyph-name="325" d="M183.337 739.123c39.608-19.415 77.394-37.908 115.159-56.422 115.528-56.627 230.994-113.336 346.583-169.82 45.752-22.364 91.668-44.421 137.667-66.253 9.81-4.649 13.947-10.834 13.906-22.077-0.41-90.604-0.225-181.207-0.225-271.79 0-13.988-0.041-14.008-13.947-14.008-21.381 0-42.762 0-65.29 0 0 79.155 0 157.286 0 235.971-151.163 0-301.199 0-452.465 0 0-77.906 0-155.668 0-234.332-4.403-0.287-7.68-0.676-10.936-0.696-19.763-0.061-39.526 0.307-59.249-0.184-8.192-0.205-11.51 1.864-11.244 10.691 0.594 20.070 0.184 40.182 0.184 60.273-0.041 171.663-0.102 343.327-0.164 514.99 0.020 3.994 0.020 8.008 0.020 13.66zM183.337 806.871c3.666-1.638 6.41-2.765 9.052-4.076 160.932-79.831 321.864-159.703 482.816-239.534 42.598-21.135 85.279-42.086 127.898-63.201 31.109-15.421 31.089-15.462 25.006-51.876-10.015 4.628-19.804 8.827-29.307 13.578-202.732 101.499-405.381 203.080-608.133 304.476-5.673 2.847-7.905 6.103-7.475 12.472 0.594 8.991 0.143 18.063 0.143 28.16zM696.279 239.37c0-14.029 0-27.484 0-41.431-138.056 0-275.517 0-413.635 0 0 13.763 0 27.218 0 41.431 137.687 0 275.087 0 413.635 0zM282.563 261.734c0 12.595 0 24.678 0 37.294 137.871 0 275.19 0 413.123 0 0-12.329 0-24.412 0-37.294-137.257 0-274.555 0-413.123 0zM697.754 356.209c0-10.916 0.41-21.094-0.307-31.191-0.164-2.273-4.014-4.567-6.574-6.267-1.188-0.778-3.318-0.143-5.018-0.143-130.458 0-260.895 0-391.352 0-3.338 0-6.697 0-10.813 0 0 12.964 0 24.986 0 37.622 137.605-0.020 275.087-0.020 414.065-0.020zM281.989 176.456c138.895 0 275.988 0 413.983 0 0-12.308 0-24.31 0-37.724-3.707 0-7.332 0-10.977 0-130.355 0-260.71 0.082-391.066-0.184-8.97-0.020-13.148 1.761-12.124 11.653 0.881 8.356 0.184 16.855 0.184 26.255z" />
<glyph unicode="&#xe905;" glyph-name="326" d="M110.858 362.557c4.874 4.137 9.359 8.847 14.664 12.349 124.191 82.002 248.525 163.758 372.593 245.924 11.059 7.332 19.743 7.004 30.659-0.225 124.559-82.452 249.303-164.618 374.17-246.62 8.827-5.796 13.066-12.308 12.861-23.204-0.594-31.437-0.348-62.894-0.123-94.351 0.061-7.946-1.106-14.909-8.888-18.78-7.25-3.584-13.558-1.085-19.886 3.113-121.774 80.814-243.651 161.485-365.343 242.422-6.124 4.076-10.158 4.301-16.384 0.143-120.914-80.445-241.992-160.645-363.131-240.763-4.321-2.847-9.298-5.386-14.295-6.328-8.233-1.536-12.923 4.342-16.876 10.609-0.020 38.564-0.020 77.148-0.020 115.712zM142.991 282.419c4.198 2.601 6.943 4.198 9.605 5.96 115.139 76.308 230.277 152.658 345.436 228.987 14.295 9.482 16.384 9.38 31.007-0.307 115.61-76.636 231.24-153.272 346.87-229.888 2.109-1.393 4.383-2.519 7.578-4.321 0 20.193-0.205 39.137 0.143 58.061 0.082 5.161-1.843 7.967-5.939 10.67-119.439 78.397-238.838 156.877-358.134 235.52-4.669 3.072-7.823 3.113-12.472 0.020-42.476-28.201-85.115-56.115-127.713-84.132-76.513-50.319-153.068-100.618-229.458-151.101-2.97-1.966-6.492-5.898-6.574-9.011-0.635-19.579-0.348-39.158-0.348-60.457zM802.877 577.884c-16.568 0-31.601 0-47.473 0 0-27.771 0-55.194 0-85.299-11.878 7.905-22.118 14.5-32.010 21.586-1.331 0.942-1.229 4.342-1.249 6.615-0.082 23.429-0.143 46.858-0.020 70.267 0.082 14.172 6.042 20.111 19.968 20.152 23.716 0.061 47.432 0.061 71.168 0 16.548-0.041 22.077-5.55 22.077-21.77 0.020-45.076 0-90.132 0-135.209 0-2.58 0-5.161 0-9.646-10.936 7.168-20.685 13.148-29.86 19.907-1.946 1.434-2.499 5.734-2.519 8.704-0.164 31.437-0.102 62.853-0.102 94.29 0.020 3.236 0.020 6.431 0.020 10.404zM142.991 282.419c0 21.279-0.307 40.858 0.307 60.416 0.102 3.113 3.604 7.045 6.574 9.011 76.411 50.504 152.945 100.782 229.458 151.101 42.598 28.017 85.238 55.931 127.713 84.132 4.649 3.092 7.803 3.052 12.472-0.020 119.296-78.623 238.694-157.102 358.134-235.52 4.096-2.683 6.021-5.509 5.939-10.67-0.328-18.924-0.143-37.847-0.143-58.061-3.195 1.802-5.468 2.929-7.578 4.321-115.63 76.616-231.26 153.231-346.87 229.888-14.623 9.687-16.712 9.789-31.007 0.307-115.139-76.329-230.277-152.658-345.436-228.987-2.621-1.72-5.366-3.318-9.564-5.919z" />
<glyph unicode="&#xe906;" glyph-name="327" d="M239.065 500.677h545.772l57.6-33.182c4.332-2.462 9.846-0.985 12.308 3.249l24.714 42.831c2.462 4.332 0.985 9.846-3.249 12.308l-355.249 204.997c-5.612 3.249-12.406 3.249-18.018 0l-355.151-204.997c-4.332-2.462-5.809-7.975-3.249-12.308l24.714-42.831c2.462-4.332 7.975-5.809 12.308-3.249l57.502 33.182zM512 684.209c-6.105-3.545-292.037-168.665-330.043-190.523l-11.225 19.397 341.268 197.022 341.268-197.022-11.225-19.397c-153.403 88.418-176.542 101.908-330.043 190.523zM512 673.772l8.566-4.923v-114.215h-17.231c0 40.96 0 66.855 0 114.215l8.665 4.923zM659.003 554.634h-17.231v34.363l8.566 4.923 8.665-5.022v-34.265zM564.283 554.634h-34.363l94.228 54.449c19.003-10.929 8.271-4.825 17.231-9.945 0 0-11.717-6.695-77.095-44.505zM494.080 554.634h-34.363c-66.56 38.498-77.095 44.505-77.095 44.505 0.591 0.394 9.748 5.612 17.231 9.945l94.228-54.449zM382.326 588.997v-34.363h-17.231v34.363l8.566 4.923 8.665-4.923zM289.969 545.674c176.542 0 46.572 0 444.062 0l38.892-22.449h-521.846l38.892 22.449zM251.077 523.126h22.154v-294.105h-22.154v294.105zM227.446 220.16h-16.443c-1.575 0-2.855 1.28-2.855 2.855v279.729c0 1.575 1.28 2.855 2.855 2.855h16.443c1.575 0 2.855-1.28 2.855-2.855v-279.729c0-1.575-1.28-2.855-2.855-2.855zM215.926 235.126h49.428c4.332 0 7.778-3.446 7.778-7.778v-5.317c0-4.332-3.446-7.778-7.778-7.778h-49.428c-4.332 0-7.778 3.446-7.778 7.778v5.317c0 4.332 3.545 7.778 7.778 7.778zM773.024 229.103h-22.154v294.105h22.154v-294.105zM796.554 220.16h16.443c1.575 0 2.855 1.28 2.855 2.855v279.729c0 1.575-1.28 2.855-2.855 2.855h-16.443c-1.575 0-2.855-1.28-2.855-2.855v-279.729c0.098-1.575 1.378-2.855 2.855-2.855zM808.074 235.126h-49.428c-4.332 0-7.778-3.446-7.778-7.778v-5.317c0-4.332 3.446-7.778 7.778-7.778h49.428c4.332 0 7.778 3.446 7.778 7.778v5.317c0 4.332-3.446 7.778-7.778 7.778z" />
<glyph unicode="&#xe907;" glyph-name="328" d="M817.603 151.060c-7.107 0-12.861 5.755-12.861 12.861v617.984h-583.803v-617.984c0-7.107-5.755-12.861-12.861-12.861s-12.861 5.755-12.861 12.861v630.845c0 7.107 5.755 12.861 12.861 12.861h609.546c7.107 0 12.861-5.755 12.861-12.861v-630.845c-0.020-7.107-5.755-12.861-12.882-12.861zM765.686 151.060c-7.107 0-12.861 5.755-12.861 12.861v558.1h-480.010v-558.1c0-7.107-5.755-12.861-12.861-12.861s-12.861 5.755-12.861 12.861v570.962c0 7.107 5.755 12.861 12.861 12.861h505.733c7.107 0 12.861-5.755 12.861-12.861v-570.962c0-7.107-5.755-12.861-12.861-12.861zM874.824 88.515h-723.988c-7.107 0-12.861 5.755-12.861 12.861v62.546c0 7.107 5.755 12.861 12.861 12.861h724.009c7.107 0 12.861-5.755 12.861-12.861v-62.546c-0.020-7.107-5.775-12.861-12.882-12.861zM163.676 114.237h698.286v36.823h-698.286v-36.823zM259.973 151.060c-5.53 0-10.629 3.564-12.308 9.134-2.068 6.779 1.782 13.967 8.581 16.015l149.217 45.158v433.336l-150.835 68.465c-6.451 2.929-9.318 10.547-6.39 17.039 2.929 6.431 10.609 9.277 17.039 6.39l158.372-71.885c4.588-2.089 7.537-6.656 7.537-11.715v-451.154c0-5.673-3.727-10.67-9.134-12.308l-158.372-47.923c-1.229-0.369-2.478-0.553-3.707-0.553zM765.686 151.060c-1.229 0-2.478 0.184-3.727 0.553l-158.372 47.923c-5.427 1.638-9.134 6.636-9.134 12.308v451.154c0 5.059 2.929 9.626 7.537 11.715l158.372 71.885c6.513 2.888 14.070 0.041 17.039-6.39 2.929-6.472 0.082-14.090-6.39-17.039l-150.835-68.465v-433.316l149.217-45.158c6.799-2.068 10.65-9.236 8.581-16.015-1.659-5.591-6.758-9.155-12.288-9.155zM376.095 453.509h-71.639c-7.107 0-12.861 5.755-12.861 12.861v200.315c0 4.588 2.458 8.868 6.451 11.162 4.014 2.253 8.909 2.294 12.882-0.041l71.639-41.779c3.953-2.294 6.39-6.533 6.39-11.1v-158.536c-0.020-7.127-5.755-12.882-12.861-12.882zM317.317 479.232h45.916v138.301l-45.916 26.767v-165.069zM721.203 453.509h-71.639c-7.107 0-12.861 5.755-12.861 12.861v158.536c0 4.567 2.437 8.806 6.39 11.1l71.639 41.779c3.994 2.355 8.888 2.314 12.882 0.041 3.994-2.294 6.451-6.554 6.451-11.162v-200.315c0-7.086-5.755-12.841-12.861-12.841zM662.426 479.232h45.916v165.069l-45.916-26.767v-138.301zM304.456 209.551c-2.212 0-4.424 0.573-6.41 1.7-3.994 2.294-6.451 6.554-6.451 11.162v200.315c0 7.107 5.755 12.861 12.861 12.861h71.639c7.107 0 12.861-5.755 12.861-12.861v-158.536c0-4.567-2.437-8.806-6.39-11.1l-71.639-41.779c-2.007-1.188-4.239-1.761-6.472-1.761zM317.317 409.866v-165.069l45.916 26.767v138.301h-45.916zM721.203 209.551c-2.232 0-4.465 0.573-6.472 1.761l-71.639 41.779c-3.953 2.294-6.39 6.533-6.39 11.1v158.536c0 7.107 5.755 12.861 12.861 12.861h71.639c7.107 0 12.861-5.755 12.861-12.861v-200.315c0-4.588-2.458-8.868-6.451-11.162-1.987-1.126-4.198-1.7-6.41-1.7zM662.426 271.565l45.916-26.767v165.069h-45.916v-138.301z" />
<glyph unicode="&#xe908;" glyph-name="329" d="M1006.934-29.866h-187.734v972.8c0 9.42-7.646 17.066-17.066 17.066h-580.268c-9.42 0-17.066-7.646-17.066-17.066v-972.8h-187.734c-9.42 0-17.066-7.646-17.066-17.066s7.646-17.068 17.066-17.068h989.866c9.42 0 17.066 7.646 17.066 17.066s-7.644 17.068-17.064 17.068zM682.666 21.334c0-9.42-7.646-17.066-17.066-17.066h-307.2c-9.42 0-17.066 7.646-17.066 17.066v324.266c0 9.42 7.646 17.066 17.066 17.066h307.2c9.42 0 17.066-7.646 17.066-17.066v-324.266zM341.334 413.866c0 9.42 7.646 17.066 17.066 17.066h68.266c9.42 0 17.066-7.646 17.066-17.066s-7.646-17.066-17.066-17.066h-68.266c-9.42 0-17.066 7.646-17.066 17.066zM682.666 482.134c0-9.42-7.646-17.066-17.066-17.066h-307.2c-9.42 0-17.066 7.646-17.066 17.066v324.266c0 9.42 7.646 17.066 17.066 17.066h307.2c9.42 0 17.066-7.646 17.066-17.066v-324.266zM750.934-29.866h-34.134v887.466h-409.6v-887.466h-34.134v904.532c0 9.42 7.646 17.066 17.066 17.066h443.734c9.42 0 17.066-7.646 17.066-17.066v-904.532zM375.466 328.534h273.066v-290.134h-273.066v290.134zM375.466 789.334h273.066v-290.134h-273.066v290.134z" />
<glyph unicode="&#xe909;" glyph-name="330" d="M788.767 60.006l-0.655 125.399-620.093 190.054 0.676-125.399zM172.851 385.024l622.346-190.751c0.86 0.553 3.318 2.13 3.686 2.376 1.27 0.86 2.519 1.7 3.727 2.56 0.246 0.184 2.621 1.884 3.502 2.56 0.43 0.328 2.621 2.028 3.277 2.56 0.451 0.369 2.478 2.068 3.052 2.56 0.43 0.369 2.314 2.068 2.806 2.54 0.41 0.389 2.109 2.068 2.56 2.519 0.369 0.369 1.905 2.048 2.314 2.499 0.328 0.369 0.655 0.737 0.963 1.106 0.369 0.451 0.737 0.901 1.085 1.331 0.287 0.369 0.573 0.737 0.84 1.106 0.328 0.43 0.635 0.881 0.922 1.311 0.246 0.369 0.492 0.717 0.717 1.065 0.287 0.43 0.532 0.86 0.778 1.29 0.205 0.348 0.41 0.676 0.573 1.024 0.225 0.43 0.43 0.86 0.635 1.29 0.143 0.328 0.307 0.655 0.451 0.963 0.184 0.43 0.328 0.86 0.471 1.29 0.102 0.287 0.205 0.573 0.287 0.86 0.143 0.471 0.225 0.942 0.328 1.393 0.041 0.225 0.123 0.471 0.143 0.696 0.102 0.676 0.164 1.352 0.164 1.987l-0.041 7.926-27.013-8.233c-1.393-0.43-2.97-0.635-4.526-0.635-0.778 0-1.556 0.061-2.314 0.164-0.369 0.061-0.717 0.164-1.065 0.225-0.369 0.082-0.778 0.143-1.126 0.246 0 0 0 0-0.020 0 0 0-0.020 0-0.020 0l-589.66 180.756c-5.878-8.52-16.097-17.715-29.839-26.583zM868.065 282.44l-21.729-6.615 0.143-28.447c0 0 0 0 0 0l0.082-16.179c0.061-12.8-14.971-29.471-40.387-44.851l0.676-126.403 22.487 6.84-0.143 28.426c0 1.72 1.72 3.297 4.526 4.157l46.592 14.193-0.922 172.319-11.325-3.441zM787.784 243.323l-0.676 125.399-620.073 190.054 0.676-125.399zM171.868 568.34l622.346-190.751c0.881 0.553 3.318 2.15 3.686 2.376 1.29 0.86 2.519 1.7 3.727 2.56 0.225 0.164 2.58 1.864 3.502 2.56 0.41 0.307 2.621 2.028 3.277 2.56 0.451 0.369 2.478 2.068 3.052 2.56 0.43 0.369 2.314 2.068 2.806 2.54 0.41 0.389 2.109 2.068 2.56 2.519 0.369 0.389 1.905 2.048 2.294 2.478 0.328 0.389 0.655 0.758 0.983 1.147 0.369 0.451 0.717 0.881 1.065 1.311 0.287 0.369 0.573 0.737 0.86 1.106 0.328 0.43 0.614 0.86 0.922 1.29 0.246 0.369 0.492 0.717 0.717 1.085 0.266 0.43 0.532 0.86 0.778 1.29 0.205 0.348 0.41 0.696 0.594 1.024 0.225 0.43 0.43 0.86 0.635 1.27 0.143 0.328 0.307 0.655 0.451 0.963 0.184 0.43 0.328 0.86 0.471 1.29 0.102 0.287 0.225 0.594 0.307 0.881 0.143 0.471 0.225 0.922 0.307 1.372 0.041 0.225 0.123 0.471 0.143 0.717 0.102 0.676 0.164 1.352 0.164 1.987l-0.041 7.926-27.013-8.233c-1.393-0.43-2.97-0.635-4.526-0.635-0.778 0-1.556 0.061-2.335 0.164-0.369 0.061-0.717 0.164-1.065 0.225-0.369 0.082-0.778 0.143-1.126 0.246 0 0 0 0-0.020 0 0 0-0.020 0-0.020 0l-589.66 180.797c-5.878-8.54-16.097-17.736-29.839-26.624zM845.373 459.162l0.246-44.605c0.061-12.82-14.971-29.491-40.387-44.872l0.676-126.403 22.467 6.84-0.143 28.447c0 1.72 1.72 3.297 4.526 4.157l46.592 14.193-0.922 172.319-33.055-10.076zM786.801 426.68l-0.676 125.379-620.073 190.054 0.676-125.379zM851.21 644.588l-6.84-2.089c0 0 0.184-46.264 0.061-47.104-0.041-0.287-0.123-0.594-0.184-0.881-0.102-0.553-0.205-1.126-0.348-1.7-0.102-0.348-0.246-0.717-0.348-1.065-0.164-0.532-0.328-1.044-0.532-1.577-0.143-0.389-0.348-0.799-0.532-1.188-0.225-0.512-0.43-1.004-0.696-1.536-0.205-0.41-0.471-0.84-0.696-1.27-0.287-0.492-0.553-1.004-0.86-1.516-0.266-0.43-0.573-0.881-0.86-1.311-0.328-0.512-0.655-1.004-1.024-1.516-0.328-0.451-0.676-0.901-1.024-1.352-0.389-0.512-0.758-1.024-1.188-1.536-0.369-0.451-0.778-0.922-1.188-1.393-0.43-0.512-0.881-1.024-1.331-1.536-0.43-0.471-2.314-2.437-2.826-2.949-0.471-0.471-2.56-2.458-3.133-2.97-0.512-0.471-2.806-2.458-3.42-2.99-0.553-0.471-3.031-2.458-3.707-2.99-0.594-0.471-3.256-2.458-3.994-2.99-0.635-0.471-3.482-2.458-4.26-2.99-0.676-0.451-3.707-2.437-4.547-2.97-0.696-0.451-3.031-1.905-3.523-2.191l0.676-126.403 22.508 6.881-0.143 28.426c0 1.72 1.72 3.297 4.526 4.157l46.592 14.193-0.922 172.319-26.235-7.967zM793.252 560.927c20.705 13.046 33.321 26.931 33.26 36.925l-0.246 44.646-620.093 190.054 0.205-39.055c0.061-11.96-13.066-27.3-35.512-41.8l622.387-190.771zM215.142 840.847l620.196-190.075 33.055 10.056-620.196 190.095z" />
<glyph unicode="&#xe90a;" glyph-name="331" d="M212.132 588.268v24.863h34.058c45.65 0 82.78-37.13 82.78-82.78v-27.587h-27.156v-50.074h209.94v50.074h-20.111v27.587c0 135.557-109.896 245.453-245.453 245.453h-34.058v22.426h-50.074v-209.94h50.074zM858.378 506.040h-23.634v269.742h-162.652v-269.742h-23.634v-50.053h209.92zM486.912 345.682v34.058h24.842v50.074h-209.92v-50.074h22.426v-34.058c0-133.263 106.291-241.48 238.674-245.084v-0.348h34.324v0.348c132.403 3.604 238.674 111.821 238.674 245.084v34.058h22.426v50.074h-209.92v-50.074h24.842v-34.058c0-45.65-37.13-82.78-82.78-82.78h-20.849c-45.609 0-82.739 37.13-82.739 82.78z" />
<glyph unicode="&#xe90b;" glyph-name="332" d="M214.856 65.638h625.541c44.38 0 80.486 36.106 80.486 80.486v625.541c0 44.38-36.106 80.486-80.486 80.486h-625.541c-44.38 0-80.486-36.106-80.486-80.486v-625.541c-0.020-44.38 36.086-80.486 80.486-80.486zM161.669 771.666c0 29.327 23.859 53.187 53.187 53.187h625.541c29.327 0 53.187-23.859 53.187-53.187v-625.541c0-29.327-23.859-53.187-53.187-53.187h-625.541c-29.327 0-53.187 23.859-53.187 53.187v625.541zM384.799 435.63h70.185c7.537 0 13.66 6.103 13.66 13.66v157.020c0 7.537-6.124 13.66-13.66 13.66h-70.185c-7.537 0-13.66-6.103-13.66-13.66v-157.041c0-7.537 6.124-13.64 13.66-13.64zM398.438 592.65h42.885v-129.72h-42.885v129.72zM622.838 450.478h55.030c7.537 0 13.66 6.124 13.66 13.66v127.959c0 7.537-6.124 13.66-13.66 13.66h-55.030c-7.537 0-13.66-6.124-13.66-13.66v-127.959c0-7.537 6.103-13.66 13.66-13.66zM636.477 578.437h27.73v-100.659h-27.73v100.659zM466.35 281.784c0-7.537 6.103-13.66 13.66-13.66h108.196c7.537 0 13.66 6.103 13.66 13.66v47.718c0 37.356-30.392 67.748-67.748 67.748s-67.748-30.392-67.748-67.748v-47.718zM493.65 329.482c0 22.303 18.145 40.448 40.448 40.448s40.448-18.145 40.448-40.448v-34.058h-80.896v34.058zM326.861 199.229c8.602-6.656 23.716-11.674 35.164-11.674h331.182c11.448 0 26.583 5.018 35.164 11.674 81.060 62.751 127.549 157.389 127.549 259.686s-46.49 196.936-127.549 259.686c-8.602 6.656-23.716 11.674-35.164 11.674h-331.182c-11.448 0-26.542-5.018-35.164-11.674-81.060-62.751-127.549-157.389-127.549-259.686s46.49-196.956 127.549-259.686zM343.552 696.975c3.891 3.011 13.046 5.96 18.452 5.96h331.182c5.427 0 14.561-2.949 18.452-5.96 74.322-57.528 116.961-144.323 116.961-238.080 0-93.778-42.619-180.552-116.961-238.1-3.871-3.011-13.025-5.96-18.452-5.96h-331.162c-5.427 0-14.561 2.949-18.452 5.96-74.342 57.528-116.961 144.323-116.961 238.080 0 93.798 42.619 180.572 116.941 238.1zM350.638 718.95l-76.513-76.513-56.422-129.065v-108.954l49.459-119.788 60.293-69.775 37.868-17.572 333.087 3.092 59.515 40.96 58.716 91.341 26.276 97.239-6.943 88.105-28.59 87.736-68.792 92.324-37.089 20.869 1.536 119.030 173.117-7.741 30.147-45.588 3.092-240.353-4.649-423.506-37.089-35.553-197.079-7.741-471.265 4.649-37.642 24.719-18.145 49.459v636.826l51.773 44.831 298.353 3.85h223.314l-11.592-132.157z" />
<glyph unicode="&#xe90c;" glyph-name="333" d="M628.728 65.159v-29.919c0-23.809-17.488-43.615-40.244-46.986l-7.374-27.18c-4.003-14.749-17.277-25.073-32.658-25.073h-73.113c-15.381 0-28.655 10.324-32.658 25.073l-7.164 27.18c-22.966 3.582-40.454 23.177-40.454 47.197v29.919c0 16.013 12.853 28.866 28.866 28.866h175.934c16.013-0.211 28.866-13.063 28.866-29.077zM764.207 468.438c0-68.056-26.97-129.791-70.795-175.091-33.291-34.555-54.782-78.591-61.946-125.577-3.16-20.227-20.649-35.187-41.297-35.187h-156.55c-20.438 0-38.137 14.749-41.086 34.976-7.374 46.986-29.077 91.654-62.367 125.998-42.983 44.668-69.742 105.35-70.374 172.142-1.475 140.326 110.196 253.893 250.522 254.947 140.115 1.053 253.893-112.303 253.893-252.207zM540.444 621.195c0 15.592-12.642 28.444-28.444 28.444-100.293 0-182.044-81.541-182.044-182.044 0-15.592 12.642-28.444 28.444-28.444 15.592 0 28.444 12.642 28.444 28.444 0 69.109 56.257 125.156 125.156 125.156 15.802 0 28.444 12.642 28.444 28.444zM512 803.45c15.592 0 28.444 12.642 28.444 28.444v99.661c0 15.592-12.642 28.444-28.444 28.444s-28.444-12.642-28.444-28.444v-99.661c0-15.802 12.853-28.444 28.444-28.444zM177.198 468.649c0 15.592-12.642 28.444-28.444 28.444h-99.661c-15.592 0-28.444-12.642-28.444-28.444 0-15.592 12.642-28.444 28.444-28.444h99.661c15.802 0 28.444 12.642 28.444 28.444zM974.907 497.093h-99.661c-15.592 0-28.444-12.642-28.444-28.444 0-15.592 12.642-28.444 28.444-28.444h99.661c15.592 0 28.444 12.642 28.444 28.444 0 15.592-12.642 28.444-28.444 28.444zM235.141 231.822l-70.584-70.584c-11.167-11.167-11.167-29.077 0-40.244 5.478-5.478 12.853-8.217 20.016-8.217s14.538 2.739 20.016 8.217l70.584 70.584c11.167 11.167 11.167 29.077 0 40.244-10.956 11.167-29.077 11.167-40.033 0zM768.843 697.047c7.164 0 14.538 2.739 20.016 8.217l70.584 70.584c11.167 11.167 11.167 29.077 0 40.244s-29.077 11.167-40.244 0l-70.584-70.584c-11.167-11.167-11.167-29.077 0-40.244 5.689-5.478 12.853-8.217 20.227-8.217zM235.141 705.475c5.478-5.478 12.853-8.217 20.016-8.217s14.538 2.739 20.016 8.217c11.167 11.167 11.167 29.077 0 40.244l-70.584 70.584c-11.167 11.167-29.077 11.167-40.244 0s-11.167-29.077 0-40.244l70.795-70.584zM788.859 231.822c-11.167 11.167-29.077 11.167-40.244 0s-11.167-29.077 0-40.244l70.584-70.584c5.478-5.478 12.853-8.217 20.016-8.217s14.538 2.739 20.016 8.217c11.167 11.167 11.167 29.077 0 40.244l-70.374 70.584z" />
<glyph unicode="&#xe90d;" glyph-name="334" d="M362.364 817.641c-17.536 35.457-31.361 63.447-0.854 109.228 6.528 9.814 3.84 23.040-5.93 29.569-9.686 6.486-22.998 3.882-29.569-5.93-44.203-66.219-20.736-113.666-1.878-151.769 17.622-35.671 30.379-61.441 1.878-104.236-6.57-9.814-3.882-23.040 5.888-29.569 3.626-2.432 7.766-3.584 11.862-3.584 6.87 0 13.61 3.328 17.706 9.514 42.199 63.233 19.328 109.57 0.896 146.777zM532.351 817.641c-17.578 35.457-31.403 63.447-0.896 109.228 6.528 9.814 3.84 23.040-5.93 29.569-9.686 6.486-23.040 3.882-29.569-5.93-44.161-66.263-20.694-113.708-1.878-151.811 17.622-35.671 30.379-61.441 1.878-104.194-6.528-9.814-3.84-23.040 5.93-29.569 3.626-2.432 7.722-3.584 11.818-3.584 6.87 0 13.61 3.328 17.75 9.514 42.199 63.233 19.328 109.57 0.896 146.777zM702.297 817.641c-17.578 35.457-31.403 63.447-0.896 109.228 6.528 9.814 3.84 23.040-5.93 29.569-9.686 6.486-23.040 3.882-29.569-5.93-44.161-66.263-20.694-113.708-1.878-151.811 17.622-35.671 30.379-61.441 1.878-104.194-6.528-9.814-3.84-23.040 5.93-29.569 3.626-2.432 7.722-3.584 11.818-3.584 6.912 0 13.654 3.328 17.75 9.514 42.199 63.233 19.328 109.57 0.896 146.777zM874.675 618.683h-725.35c-58.839 0-106.668-47.873-106.668-106.668v-384.008c0-58.795 47.831-106.668 106.668-106.668h725.35c58.839 0 106.668 47.873 106.668 106.668v384.008c0 58.795-47.831 106.668-106.668 106.668zM213.327 128.004c0-11.776-9.558-21.334-21.334-21.334s-21.334 9.558-21.334 21.334v384.008c0 11.776 9.558 21.334 21.334 21.334s21.334-9.558 21.334-21.334v-384.008zM341.329 128.004c0-11.776-9.558-21.334-21.334-21.334s-21.334 9.558-21.334 21.334v384.008c0 11.776 9.558 21.334 21.334 21.334s21.334-9.558 21.334-21.334v-384.008zM469.332 128.004c0-11.776-9.558-21.334-21.334-21.334s-21.334 9.558-21.334 21.334v384.008c0 11.776 9.558 21.334 21.334 21.334s21.334-9.558 21.334-21.334v-384.008zM597.335 128.004c0-11.776-9.558-21.334-21.334-21.334s-21.334 9.558-21.334 21.334v384.008c0 11.776 9.558 21.334 21.334 21.334s21.334-9.558 21.334-21.334v-384.008zM725.338 128.004c0-11.776-9.558-21.334-21.334-21.334s-21.334 9.558-21.334 21.334v384.008c0 11.776 9.558 21.334 21.334 21.334s21.334-9.558 21.334-21.334v-384.008zM853.34 128.004c0-11.776-9.558-21.334-21.334-21.334s-21.334 9.558-21.334 21.334v384.008c0 11.776 9.558 21.334 21.334 21.334s21.334-9.558 21.334-21.334v-384.008zM234.661 64.003c-11.776 0-21.334-9.558-21.334-21.334v-85.336c0-11.776 9.558-21.334 21.334-21.334s21.334 9.558 21.334 21.334v85.336c-0.002 11.778-9.558 21.334-21.334 21.334zM789.339 64.003c-11.776 0-21.334-9.558-21.334-21.334v-85.336c0-11.776 9.558-21.334 21.334-21.334s21.334 9.558 21.334 21.334v85.336c0 11.778-9.558 21.334-21.334 21.334z" />
<glyph unicode="&#xe90e;" glyph-name="335" d="M1003.605 516.309l-107.605 100.437v257.92c0 23.552-19.115 42.667-42.667 42.667h-128c-23.552 0-42.667-19.115-42.667-42.667v-58.368l-141.525 132.224c-16.427 15.275-41.856 15.317-58.24 0l-463.573-433.237c-12.459-12.459-19.328-28.8-19.328-45.952 0-35.285 28.715-64 64-64h64v-362.667c0-58.795 47.872-106.667 106.667-106.667h554.667c58.795 0 106.667 47.872 106.667 106.667v362.667h64c35.285 0 64 28.715 64 64 0 17.152-6.869 33.493-20.395 46.976zM384 320h-32v-106.667c0-58.795-47.829-106.667-106.667-106.667-17.664 0-32 14.336-32 32s14.336 32 32 32c23.552 0 42.667 19.157 42.667 42.667v106.667h-32c-28.544 0-42.752 34.56-22.613 54.613l64 64c12.501 12.501 32.768 12.501 45.269 0l64-64c20.096-20.053 5.888-54.613-22.656-54.613zM576 490.667h-32v-266.667c0-17.664-14.336-32-32-32s-32 14.336-32 32v266.667h-32c-28.544 0-42.752 34.56-22.613 54.613l64 64c12.501 12.501 32.768 12.501 45.269 0l64-64c20.096-20.053 5.888-54.613-22.656-54.613zM778.667 106.667c-58.837 0-106.667 47.872-106.667 106.667v106.667h-32c-28.544 0-42.752 34.56-22.613 54.613l64 64c12.501 12.501 32.768 12.501 45.269 0l64-64c20.096-20.053 5.888-54.613-22.656-54.613h-32v-106.667c0-23.509 19.115-42.667 42.667-42.667 17.664 0 32-14.336 32-32s-14.336-32-32-32z" />
<glyph unicode="&#xe90f;" glyph-name="336" d="M309.658 481.382c0-7.578 6.144-13.722 13.722-13.722h276.48c7.782 0 13.722 6.144 13.722 13.722v16.794h-303.923v-16.794zM772.915 563.917c25.395 0 49.562 10.24 67.584 28.262 17.818 18.022 27.853 42.189 27.853 68.198v19.661h-190.874v-19.661c0-25.805 10.035-50.176 28.262-68.198 17.818-18.022 41.984-28.262 67.174-28.262zM362.086 159.846h198.656v297.984h-198.656v-297.984zM526.131 423.629c0 3.686 3.277 6.554 6.758 6.554s6.758-2.867 6.758-6.554v-212.992c0-3.891-3.277-6.963-6.758-6.963s-6.758 2.867-6.758 6.963v212.992zM878.182 680.038v-19.661c0-29.082-11.674-55.706-30.925-74.957-19.046-19.251-45.466-31.13-74.342-31.13s-55.091 11.878-74.342 31.13c-18.842 19.251-30.925 45.875-30.925 74.957v71.68h-45.466v-71.68c0-41.984 16.794-79.872 44.032-107.52 27.238-27.443 64.922-44.851 106.496-44.851s79.258 17.408 106.496 44.851c27.238 27.443 44.032 65.536 44.032 107.52v19.661h-45.056zM612.762 660.378v71.68h-504.627v-71.68c0-41.984 16.794-79.872 44.032-107.52 27.238-27.443 64.922-44.851 106.496-44.851 2.662 0 4.915 0.41 7.168 0.41l0.41-0.41h451.994c-21.709 8.192-41.574 20.89-58.368 38.093-30.31 29.901-47.104 70.861-47.104 114.278z" />
<glyph unicode="&#xe911;" glyph-name="338" d="M501.76 331.919v-129.229M358.4 395.387v-129.229M215.040 458.875v-129.229M645.12 395.387v-129.229M788.48 458.875v-129.229" />
<glyph unicode="&#xe912;" glyph-name="339" d="M363.274 352.829l-39.258 23.020c-5.576 3.269-12.723 1.725-16.453-3.551l-111.683-158.026c-26.78-37.891-28.838-86.528-0.658-103.053v0c28.183-16.525 69.622 9.021 89.613 50.893l83.374 174.628c2.783 5.829 0.64 12.823-4.936 16.090zM799.662 486.82l54.474 92.9c4.987 8.507 2.135 19.446-6.372 24.435l-312.525 183.255c-8.507 4.987-19.446 2.135-24.435-6.372l-14.653-24.988-52.708 30.907c-4.787 2.808-12.042-0.399-16.74-7.398l-69.161-103.073c-17.001-14.423-26.196-39.332-20.982-56.837l41.498-139.272c3.1-10.404 0.62-24.197-6.548-36.424l-21.85-37.263c-6.904-11.773-6.231-24.996 1.5-29.53 7.734-4.534 19.599 1.334 26.504 13.11l35.85 61.138c7.168 12.227 9.649 26.020 6.548 36.424l-37.368 125.417c-4.019 13.494 0.522 31.386 10.601 45.484 11.924 16.678 23.332 33.812 33.628 51.668l4.211 7.301c4.547 7.887 12.472 11.855 17.631 8.832l22.382-13.125-14.82-25.272c-4.987-8.507-2.135-19.446 6.372-24.435l312.525-183.255c8.509-4.987 19.448-2.132 24.438 6.374zM521.139 741.614c-2.299 1.347-3.067 4.303-1.72 6.6l10.911 18.606c1.347 2.299 4.303 3.067 6.6 1.72l290.578-170.386c2.296-1.347 3.067-4.301 1.72-6.6l-10.911-18.606c-1.347-2.299-4.303-3.067-6.6-1.72l-290.578 170.386zM859.53 561.070v0l-40.957-69.85c19.29-11.31 44.093-4.844 55.404 14.446v0c11.31 19.287 4.841 44.091-14.446 55.404zM819.133 441.167l-27.676-44.941c-8.351-13.56-4.628-31.373 8.584-40.269 5.384-3.625 11.912-5.453 19.092-4.524 5.010 0.648 9.784 2.045 14.093 4.104 15.959 7.626 21.737 27.448 12.462 42.509l-26.555 43.121zM738.632 386.79l-21.898-35.561c-6.607-10.732-3.661-24.824 6.792-31.864 4.26-2.867 9.423-4.316 15.107-3.579 3.963 0.512 7.741 1.618 11.151 3.249 12.628 6.036 17.198 21.719 9.861 33.636l-21.012 34.12z" />
<glyph unicode="&#xe913;" glyph-name="340" d="M891.924 455.578h-759.849c-16.384 0-29.676-13.292-29.676-29.676s13.292-29.676 29.676-29.676h759.828c16.384 0 29.676 13.292 29.676 29.676 0.020 16.404-13.271 29.676-29.655 29.676v0zM449.679 203.305c-8.192 0-14.848 6.656-14.848 14.848s6.656 14.848 14.848 14.848 14.848-6.656 14.848-14.848-6.656-14.848-14.848-14.848v0zM615.875 357.642h-207.749v-276.029h207.77v276.029h-0.020zM698.982 203.305c-8.192 0-14.848 6.656-14.848 14.848s6.656 14.848 14.848 14.848c8.192 0 14.848-6.656 14.848-14.848s-6.656-14.848-14.848-14.848v0zM874.107 122.45v235.192h-219.628v-276.029h178.79c22.548 0 40.837 18.268 40.837 40.837v0zM149.893 238.92h219.628v118.723h-219.628v-118.723zM149.893 122.45c0-22.548 18.289-40.837 40.837-40.837h178.79v118.723h-219.628v-77.885zM537.027 856.289h-47.104c-11.592 0-20.972-9.4-20.972-20.972v-69.693c0-17.879-7.434-34.98-20.521-47.165l-64.041-59.617c-0.963-0.901-2.232-1.393-3.543-1.393-14.234 0-26.644-10.732-27.566-24.945-1.004-15.565 11.305-28.488 26.644-28.488h263.25c14.234 0 26.644 10.732 27.566 24.945 0.963 14.909-10.281 27.382-24.719 28.426-1.249 0.082-2.437 0.532-3.359 1.393l-64.123 59.699c-13.087 12.186-20.521 29.286-20.521 47.165v69.673c-0.020 11.571-9.4 20.972-20.992 20.972v0z" />
<glyph unicode="&#xe914;" glyph-name="341" d="M986.907 682.010h-949.797c-20.497 0-37.11-16.613-37.11-37.093s16.613-37.11 37.11-37.11h949.797c20.497 0 37.093 16.613 37.093 37.11s-16.613 37.093-37.093 37.093v0zM434.080 366.661c-10.24 0-18.555 8.315-18.555 18.555s8.315 18.555 18.555 18.555 18.555-8.315 18.555-18.555c0-10.257-8.315-18.555-18.555-18.555v0zM641.851 559.578h-259.701v-345.040h259.718v345.040h-0.017zM745.744 366.661c-10.24 0-18.555 8.315-18.555 18.555s8.315 18.555 18.555 18.555 18.555-8.315 18.555-18.555c-0.017-10.257-8.315-18.555-18.555-18.555v0zM964.635 265.589v293.989h-274.555v-345.040h223.504c28.197 0 51.051 22.853 51.051 51.051v0zM59.365 411.173h274.555v148.405h-274.555v-148.405zM59.365 265.589c0-28.197 22.853-51.051 51.051-51.051h223.504v148.405h-274.555v-97.355z" />
<glyph unicode="&#xe915;" glyph-name="342" d="M583.496 312.648c0 0 9.687-48.742 20.46-59.515 10.793-10.772 28.262-10.772 39.055 0 10.772 10.793 10.772 28.262 0 39.055-10.793 10.772-59.515 20.46-59.515 20.46zM501.862 394.117c0 0 9.687-48.722 20.46-59.515s28.262-10.793 39.055 0c10.793 10.772 10.793 28.262 0 39.055-10.772 10.772-59.515 20.46-59.515 20.46zM664.371 231.608c0 0 9.687-48.742 20.46-59.515s28.262-10.772 39.055 0c10.793 10.793 10.793 28.262 0 39.055-10.772 10.772-59.515 20.46-59.515 20.46zM703.631 329.359c0 0 9.687-48.722 20.46-59.515s28.262-10.793 39.055 0c10.772 10.793 10.772 28.262 0 39.055-10.793 10.772-59.515 20.46-59.515 20.46zM681.513 390.369c-10.793 10.793-59.515 20.46-59.515 20.46s9.687-48.722 20.46-59.515c10.772-10.793 28.262-10.793 39.055 0s10.793 28.262 0 39.055zM599.962 471.921c-10.772 10.772-59.515 20.46-59.515 20.46s9.687-48.742 20.46-59.515c10.793-10.772 28.262-10.772 39.055 0s10.793 28.262 0 39.055zM784.507 248.32c0 0 9.687-48.742 20.46-59.515 10.793-10.772 28.262-10.772 39.055 0 10.793 10.793 10.793 28.262 0 39.055-10.772 10.772-59.515 20.46-59.515 20.46zM780.227 428.81c-10.793 10.793-59.515 20.46-59.515 20.46s9.687-48.722 20.46-59.515c10.772-10.793 28.262-10.793 39.055 0s10.793 28.262 0 39.055zM698.614 471.224c10.772 10.793 10.772 28.262 0 39.055-10.793 10.793-59.515 20.46-59.515 20.46s9.687-48.722 20.46-59.515c10.772-10.772 28.262-10.772 39.055 0zM861.123 347.771c-10.772 10.772-59.515 20.46-59.515 20.46s9.687-48.722 20.46-59.515 28.262-10.793 39.055 0c10.772 10.793 10.772 28.262 0 39.055zM420.823 679.772c-19.825 31.396-54.723 52.326-94.597 52.326h-172.667v-74.158h172.667c17.449 0 32.010-11.96 36.332-28.058-34.836-53.268-28.877-125.42 17.92-172.216l194.294 194.294c-41.656 41.615-103.301 50.79-153.948 27.812zM625.725 636.805c-10.138 10.138-26.583 10.138-36.721 0l-193.413-193.413c-10.138-10.138-10.138-26.583 0-36.721s26.583-10.138 36.721 0l193.413 193.413c10.138 10.158 10.138 26.583 0 36.721z" />
<glyph unicode="&#xe916;" glyph-name="343" d="M879.698 602.542c-1.311 3.174-3.85 5.714-7.025 7.025-1.597 0.655-3.277 1.004-4.956 1.004h-93.655v201.277c0 1.72-0.369 3.338-0.983 4.854-0.020 0.041 0 0.082-0.020 0.123 0 0-0.020 0.020-0.020 0.020-0.881 2.13-2.437 3.789-4.239 5.161-0.43 0.328-0.84 0.614-1.311 0.881-1.925 1.126-4.055 1.946-6.451 1.946h-213.258c-3.461 0-6.758-1.372-9.196-3.809l-291.901-291.942c-1.208-1.208-2.171-2.642-2.826-4.239s-1.004-3.277-1.004-4.956v-102.236l-102.83-102.83c-1.208-1.208-2.171-2.642-2.826-4.239s-1.004-3.277-1.004-4.956v-213.279c0-7.188 5.816-12.984 12.984-12.984h426.557c1.7 0 3.379 0.348 4.956 1.004 1.597 0.655 3.031 1.618 4.239 2.826l291.942 291.942c2.437 2.437 3.809 5.734 3.809 9.196v213.258c0 1.679-0.328 3.359-0.983 4.956zM570.368 318.607h-70.881l265.953 265.974h70.902l-265.974-265.974zM456.131 506.9v-187.29h-187.29v90.665c0.328 1.659 0.328 3.297 0 4.956v91.668h187.29zM748.052 741.683l-66.601-66.621c-5.079-5.079-5.079-13.292 0-18.371 2.54-2.54 5.857-3.809 9.196-3.809 3.318 0 6.656 1.27 9.196 3.809l48.23 48.251v-100.987l-265.974-265.974v34.652l158.31 158.331c5.079 5.079 5.079 13.292 0 18.371s-13.292 5.079-18.371 0l-139.94-139.96v105.144l265.953 265.953v-38.789zM553.165 798.843h107.069l-176.599-176.599c-5.079-5.079-5.079-13.292 0-18.371 2.54-2.54 5.857-3.809 9.196-3.809 3.318 0 6.656 1.27 9.175 3.809l194.97 194.97h32.707l-265.953-265.974h-111.084l96.727 96.727c5.079 5.079 5.079 13.292 0 18.371s-13.292 5.079-18.371 0l-115.098-115.098h-28.692l265.953 265.974zM242.852 318.607h-62.3l62.3 62.3v-62.3zM162.181 292.639h187.29v-187.29h-187.29v187.29zM375.46 292.639h187.29v-187.29h-187.29v187.29zM588.739 123.72v49.336l77.906 77.906c5.079 5.079 5.079 13.292 0 18.371s-13.292 5.079-18.371 0l-59.535-59.535v90.46l265.974 265.974v-50.381c-0.287-0.246-0.655-0.348-0.942-0.614l-145.388-145.388c-5.079-5.079-5.079-13.292 0-18.371 2.54-2.54 5.857-3.809 9.196-3.809s6.656 1.27 9.196 3.809l127.959 127.959v-89.723l-265.994-265.994z" />
<glyph unicode="&#xe917;" glyph-name="344" d="M1006.934-29.866h-187.734v972.8c0 9.42-7.646 17.066-17.066 17.066h-580.268c-9.42 0-17.066-7.646-17.066-17.066v-972.8h-187.734c-9.42 0-17.066-7.646-17.066-17.066s7.646-17.068 17.066-17.068h989.866c9.42 0 17.066 7.646 17.066 17.066s-7.644 17.068-17.064 17.068zM682.666 21.334c0-9.42-7.646-17.066-17.066-17.066h-307.2c-9.42 0-17.066 7.646-17.066 17.066v324.266c0 9.42 7.646 17.066 17.066 17.066h307.2c9.42 0 17.066-7.646 17.066-17.066v-324.266zM341.334 413.866c0 9.42 7.646 17.066 17.066 17.066h68.266c9.42 0 17.066-7.646 17.066-17.066s-7.646-17.066-17.066-17.066h-68.266c-9.42 0-17.066 7.646-17.066 17.066zM682.666 482.134c0-9.42-7.646-17.066-17.066-17.066h-307.2c-9.42 0-17.066 7.646-17.066 17.066v324.266c0 9.42 7.646 17.066 17.066 17.066h307.2c9.42 0 17.066-7.646 17.066-17.066v-324.266zM750.934-29.866h-34.134v887.466h-409.6v-887.466h-34.134v904.532c0 9.42 7.646 17.066 17.066 17.066h443.734c9.42 0 17.066-7.646 17.066-17.066v-904.532zM375.466 328.534h273.066v-290.134h-273.066v290.134zM375.466 789.334h273.066v-290.134h-273.066v290.134z" />
<glyph unicode="&#xe918;" glyph-name="345" d="M169.984 459.264c-0.819 0-1.638 0-2.253 0.205-3.686 0.819-6.554 3.277-7.782 6.758l-23.142 62.669c-1.434 3.891-0.41 8.397 2.458 11.469 3.072 3.072 7.578 4.096 11.469 2.458l62.464-23.142c3.482-1.229 6.144-4.301 6.758-7.782 0.819-3.686-0.41-7.373-2.867-10.035l-39.322-39.322c-2.253-2.048-4.915-3.277-7.782-3.277zM165.274 514.355l9.011-24.371 15.36 15.36-24.371 9.011zM189.645 406.016c-0.819 0-1.638 0-2.253 0.205-3.686 0.819-6.554 3.277-7.782 6.758l-19.866 53.453c-1.434 3.891-0.41 8.397 2.458 11.469l39.322 39.322c3.072 3.072 7.578 4.096 11.469 2.458l53.248-19.661c3.482-1.229 6.144-4.301 6.758-7.782 0.819-3.686-0.41-7.373-2.867-10.035l-72.704-73.114c-2.048-2.048-4.915-3.072-7.782-3.072zM182.682 467.456l11.469-30.925 48.947 48.947-30.925 11.469-29.491-29.491zM491.93 103.731c-2.867 0-5.53 1.024-7.782 3.277l-302.080 302.080c-4.301 4.301-4.301 11.059 0 15.36l72.909 72.909c4.301 4.301 11.059 4.301 15.36 0l302.080-302.080c4.301-4.301 4.301-11.059 0-15.36l-72.909-72.909c-2.048-2.048-4.915-3.277-7.578-3.277zM205.005 416.87l286.72-286.72 57.549 57.549-286.72 286.72-57.549-57.549zM540.672 86.938c-13.312 0-26.624 5.12-36.659 15.155l-12.493 12.493c-4.301 4.301-4.301 11.059 0 15.36l57.958 57.958c4.301 4.301 11.059 4.301 15.36 0l12.493-12.493c20.275-20.275 20.275-53.043 0-73.318-10.035-10.035-23.347-15.155-36.659-15.155zM514.867 122.163l4.71-4.71c11.674-11.674 30.72-11.674 42.598 0 11.674 11.674 11.674 30.72 0 42.598l-4.71 4.71-42.598-42.598zM724.992 136.294c-2.867 0-5.53 1.024-7.782 3.277l-523.469 523.264c-4.301 4.301-4.301 11.059 0 15.36l105.472 105.472c4.301 4.301 11.059 4.301 15.36 0l523.469-523.469c4.301-4.301 4.301-11.059 0-15.36l-105.472-105.472c-2.048-2.048-4.915-3.072-7.578-3.072zM216.883 670.618l507.904-507.904 90.112 90.112-507.904 507.904-90.112-90.112zM185.754 644.813c-2.867 0-5.53 1.024-7.782 3.277l-36.045 36.045c-4.301 4.301-4.301 11.059 0 15.36l120.832 120.832c4.301 4.301 11.059 4.301 15.36 0l36.045-36.045c2.048-2.048 3.277-4.71 3.277-7.782 0-2.867-1.229-5.734-3.277-7.782l-120.832-120.832c-2.048-2.048-4.915-3.072-7.578-3.072zM165.069 691.712l20.685-20.685 105.472 105.472-20.685 20.685-105.472-105.472zM745.882 84.275v0c-2.867 0-5.734 1.229-7.782 3.277l-36.045 36.045c-4.301 4.301-4.301 11.059 0 15.36l120.832 120.832c4.301 4.301 11.059 4.301 15.36 0l36.045-36.045c4.301-4.301 4.301-11.059 0-15.36l-120.832-120.832c-1.843-2.048-4.506-3.277-7.578-3.277zM725.197 131.174l20.685-20.685 105.472 105.472-20.685 20.685-105.472-105.472zM549.069 376.73c-2.867 0-5.53 1.024-7.782 3.277l-117.146 117.146c-4.301 4.301-4.301 11.059 0 15.36l40.96 40.96c4.096 4.096 11.264 4.096 15.36 0l117.146-117.146c2.048-2.048 3.277-4.71 3.277-7.782 0-2.867-1.229-5.734-3.277-7.782l-40.96-40.96c-2.048-2.048-4.71-3.072-7.578-3.072zM447.283 504.73l101.786-101.786 25.395 25.395-101.786 101.786-25.395-25.395zM522.24 415.027c-9.83 0-19.661 3.686-27.238 11.264l-20.685 20.89c-7.168 7.168-11.264 16.998-11.264 27.238s4.096 19.866 11.264 27.238l1.843 1.843c14.95 14.95 39.322 14.95 54.272 0l20.89-20.89c14.95-14.95 14.95-39.322 0-54.272 0 0 0 0 0 0l-1.843-1.843c-7.578-7.782-17.408-11.469-27.238-11.469zM543.744 435.712v0 0zM503.398 492.646c-4.301 0-8.602-1.638-11.878-4.915l-1.843-1.843c-3.072-3.072-4.915-7.373-4.915-11.878s1.638-8.602 4.915-11.878l20.685-20.89c6.554-6.554 16.998-6.554 23.552 0l1.843 1.843c6.554 6.554 6.554 16.998 0 23.552l-20.89 20.89c-2.867 3.482-7.168 5.12-11.469 5.12z" />
<glyph unicode="&#xe919;" glyph-name="346" d="M1003.604 694.625s-0.056-0.028-0.056-0.056l-296.988-305.861 125.307-121.457 183.929 201.452c2.204 2.4 5.218 3.599 8.231 3.599v243.36l-20.368-20.982s-0.028-0.028-0.056-0.056zM120.369 135.052l260.548 263.422-130.134 136.161-242.719-253.321c-2.204-2.288-5.134-3.432-8.064-3.432v-30.385c2.79 0 5.608-1.032 7.785-3.125l112.584-109.32zM0 814.715v-194.086l102.428 97.601-102.428 96.485zM419.31 710.557l132.841-138.924 281.614 284.711s0.028 0.056 0.056 0.056c0.028 0.028 0.056 0.056 0.084 0.084l102.372 103.516h-282.284c0-2.79-1.004-5.552-3.069-7.729l-231.614-241.742zM0 220.823v-207.451l104.66 105.832-104.66 101.619zM380.052 951.908l-29.325-27.958 126.842-120.369 149.833 156.418h-243.918c0-2.958-1.144-5.887-3.432-8.092zM0 505.59v-200.419l100.977 105.386-100.977 95.034zM116.407 426.683l126.479 132.004s0.084 0.112 0.14 0.167c0 0 0.056 0.028 0.084 0.056l219.002 228.572-127.595 121.066-326.815-311.441c-2.148-2.065-4.939-3.069-7.701-3.069 0 0 0 0 0 0v-61.998c2.734 0 5.497-0.977 7.645-3.013l108.762-102.344zM118.611 733.632l237.557 226.368h-356.168v-118.834c2.734 0 5.497-0.977 7.645-3.013l110.966-104.521zM398.16 103.188l-142.886 136.524-126.619-128.014s-0.056-0.084-0.084-0.112c-0.028-0.028-0.084-0.056-0.14-0.112l-120.508-121.82c-2.176-2.204-5.050-3.32-7.924-3.32v-50.335h240.208c0 2.79 1.032 5.608 3.153 7.785l154.8 159.404zM857.816 848.923l137.361-130.888 20.787 21.401c2.204 2.26 5.106 3.376 8.008 3.376v217.188h-60.854c0-2.846-1.060-5.664-3.209-7.84l-102.093-103.237zM811.527-47.761l204.409 214.538c2.204 2.288 5.134 3.432 8.092 3.432v274.415l-332.898-364.622 120.425-127.763zM536.442 555.729l-132.59 138.672-137.64-143.639 130.386-136.412 139.844 141.379zM979.636 702.019l-137.501 131.027-144.783-146.373 141.965-129.158 140.319 144.504zM1024-64v206.893l-197.099-206.893h197.099zM816.773 250.761l-125.782 121.959-424.053-436.693h266.463c0 2.679 0.921 5.385 2.874 7.534l280.498 307.228zM559.629-64h236.497l-120.118 127.484-116.379-127.484zM682.76 396.298l140.988 145.202-142.104 129.325-269.337-272.295 139.984-136.552 130.386 134.292s0 0.028 0.028 0.056c0 0 0.028 0 0.056 0.028zM270.955 255.588l142.746-136.385 123.047 126.703-140.123 136.719-125.67-127.037z" />
<glyph unicode="&#xe91a;" glyph-name="347" d="M580.813 237.056h-125.747c-5.939 0-11.059 4.301-11.878 10.24l-1.843 13.926c-7.578 54.067-29.901 106.291-64.717 151.552-25.6 33.178-38.707 74.342-36.864 116.326 3.686 89.907 77.005 164.864 166.707 170.394 49.766 3.072 97.28-13.926 133.53-47.923 35.635-33.587 56.32-80.896 56.32-130.048 0-39.117-12.493-76.186-36.045-107.315-36.25-47.923-58.368-99.328-65.741-152.986l-1.843-13.926c-1.024-5.939-5.939-10.24-11.878-10.24zM465.306 260.813h105.062l0.41 3.686c7.987 57.754 31.744 112.845 70.451 164.045 20.275 27.034 31.13 59.187 31.13 92.979 0 43.008-17.203 83.149-48.742 112.64-31.334 29.491-72.499 44.237-115.712 41.574-77.824-4.915-141.312-69.632-144.384-147.661-1.434-36.454 9.83-72.090 31.949-100.762 37.274-48.333 61.235-104.653 69.427-162.816l0.41-3.686zM537.395 237.056h-30.72c-6.349 0-11.469 4.915-11.878 11.264l-17.203 280.986c-0.205 3.277 1.024 6.554 3.277 8.806 2.253 2.458 5.325 3.686 8.602 3.686h65.126c3.277 0 6.349-1.434 8.602-3.686 2.253-2.458 3.482-5.53 3.277-8.806l-17.203-280.986c-0.41-6.349-5.53-11.264-11.878-11.264zM517.939 260.813h8.192l15.77 257.024h-39.731l15.77-257.024zM518.554 61.542c-67.174 0-121.856 54.682-121.856 121.856v65.331c0 6.554 5.325 11.878 11.878 11.878h220.16c6.554 0 11.878-5.325 11.878-11.878v-65.331c0-66.97-54.682-121.856-122.061-121.856zM420.454 237.056v-53.453c0-54.067 44.032-98.099 98.099-98.099s98.099 44.032 98.099 98.099v53.453h-196.198zM522.24 726.528c-6.554 0-11.878 5.325-11.878 11.878v46.694c0 6.554 5.325 11.878 11.878 11.878s11.878-5.325 11.878-11.878v-46.694c0-6.554-5.325-11.878-11.878-11.878zM676.454 660.787c-3.072 0-6.144 1.229-8.397 3.482-4.71 4.71-4.71 12.288 0 16.794l32.973 32.973c4.71 4.71 12.288 4.71 16.794 0 4.71-4.71 4.71-12.288 0-16.794l-32.973-32.973c-2.253-2.253-5.325-3.482-8.397-3.482zM330.957 321.024c-3.072 0-6.144 1.229-8.397 3.482-4.71 4.71-4.71 12.288 0 16.794l32.973 32.973c4.71 4.71 12.288 4.71 16.794 0 4.71-4.71 4.71-12.288 0-16.794l-32.973-32.973c-2.458-2.253-5.53-3.482-8.397-3.482zM785.818 505.344h-46.694c-6.554 0-11.878 5.325-11.878 11.878s5.325 11.878 11.878 11.878h46.694c6.554 0 11.878-5.325 11.878-11.878s-5.325-11.878-11.878-11.878zM301.261 509.645h-46.694c-6.554 0-11.878 5.325-11.878 11.878s5.325 11.878 11.878 11.878h46.694c6.554 0 11.878-5.325 11.878-11.878s-5.325-11.878-11.878-11.878zM706.56 318.157c-3.072 0-6.144 1.229-8.397 3.482l-32.973 32.973c-4.71 4.71-4.71 12.288 0 16.794 4.71 4.71 12.288 4.71 16.794 0l32.973-32.973c4.71-4.71 4.71-12.288 0-16.794-2.253-2.253-5.325-3.482-8.397-3.482zM366.797 663.859c-3.072 0-6.144 1.229-8.397 3.482l-32.973 32.973c-4.71 4.71-4.71 12.288 0 16.794 4.71 4.71 12.288 4.71 16.794 0l32.973-32.973c4.71-4.71 4.71-12.288 0-16.794-2.253-2.458-5.325-3.482-8.397-3.482z" />
<glyph unicode="&#xe91b;" glyph-name="348" d="M702.116 654.049c-31.13 0-60.334-12.616-82.248-35.533-9.564-10.015-9.236-25.887 0.799-35.471 9.974-9.564 25.846-9.236 35.451 0.799 24.699 25.825 67.256 25.825 91.955 0 4.936-5.161 11.53-7.741 18.125-7.741 6.246 0 12.472 2.314 17.326 6.963 10.035 9.564 10.363 25.457 0.799 35.471-21.873 22.897-51.077 35.512-82.207 35.512zM702.116 748.872c-55.357 0-107.336-22.487-146.371-63.304-9.564-10.015-9.236-25.887 0.778-35.471 10.015-9.544 25.866-9.216 35.471 0.799 29.491 30.822 68.588 47.8 110.1 47.8s80.63-16.978 110.1-47.8c4.936-5.161 11.53-7.741 18.125-7.741 6.246 0 12.472 2.314 17.347 6.963 10.015 9.564 10.363 25.457 0.778 35.471-38.994 40.817-90.972 63.283-146.33 63.283zM912.589 752.62c-56.156 58.716-130.888 91.075-210.473 91.075s-154.317-32.358-210.473-91.075c-9.585-10.015-9.216-25.907 0.799-35.471s25.887-9.236 35.471 0.799c46.592 48.742 108.462 75.571 174.203 75.571s127.611-26.829 174.203-75.571c4.936-5.161 11.53-7.741 18.125-7.741 6.246 0 12.472 2.314 17.347 6.963 10.035 9.564 10.383 25.457 0.799 35.451zM735.56 525.926c0-18.471-14.973-33.444-33.444-33.444s-33.444 14.973-33.444 33.444c0 18.471 14.973 33.444 33.444 33.444s33.444-14.973 33.444-33.444zM426.455 639.365c-4.854 4.854-12.493 4.854-17.347 0l-288.502-287.969c-3.707-3.686-4.874-9.38-2.97-14.336s6.513-8.212 11.633-8.212h62.71v-274.883c0-7.229 5.612-13.087 12.534-13.087h150.528c6.943 0 12.534 5.857 12.534 13.087v143.974h100.352v-143.974c0-7.229 5.612-13.087 12.534-13.087h150.528c6.922 0 12.534 5.857 12.534 13.087v274.883h62.71c5.12 0 9.728 3.256 11.653 8.212 1.905 4.956 0.737 10.65-2.97 14.336l-288.461 287.969zM304.886 583.496v46.162c0 7.373-5.612 13.353-12.534 13.353h-75.264c-6.943 0-12.534-5.98-12.534-13.353v-133.489c0-4.014 1.7-7.741 4.485-10.22l95.846 97.546z" />
<glyph unicode="&#xe91c;" glyph-name="349" d="M852.173 101.478h-300.237c-5.325 0-9.83 4.301-9.83 9.83v645.53c0 5.325 4.301 9.83 9.83 9.83h300.237c5.325 0 9.83-4.301 9.83-9.83v-645.734c0-5.325-4.506-9.626-9.83-9.626zM561.766 120.934h280.781v626.074h-280.781v-626.074zM672.563 620.851h-68.813c-5.325 0-9.83 4.301-9.83 9.83v68.813c0 5.325 4.301 9.83 9.83 9.83h68.813c5.325 0 9.83-4.301 9.83-9.83v-68.813c0-5.325-4.506-9.83-9.83-9.83zM613.581 640.512h49.357v49.152h-49.357v-49.152zM789.709 619.827h-68.813c-5.325 0-9.83 4.301-9.83 9.83v68.813c0 5.325 4.301 9.83 9.83 9.83h68.813c5.325 0 9.83-4.301 9.83-9.83v-68.813c0-5.325-4.301-9.83-9.83-9.83zM730.726 639.488h49.357v49.357h-49.357v-49.357zM672.563 474.829h-68.813c-5.325 0-9.83 4.301-9.83 9.83v68.813c0 5.325 4.301 9.83 9.83 9.83h68.813c5.325 0 9.83-4.301 9.83-9.83v-68.813c0-5.325-4.506-9.83-9.83-9.83zM613.581 494.49h49.357v49.357h-49.357v-49.357zM789.709 473.805h-68.813c-5.325 0-9.83 4.301-9.83 9.83v68.813c0 5.325 4.301 9.83 9.83 9.83h68.813c5.325 0 9.83-4.301 9.83-9.83v-68.813c0-5.325-4.301-9.83-9.83-9.83zM730.726 493.466h49.357v49.357h-49.357v-49.357zM672.563 328.806h-68.813c-5.325 0-9.83 4.301-9.83 9.83v68.813c0 5.325 4.301 9.83 9.83 9.83h68.813c5.325 0 9.83-4.301 9.83-9.83v-68.813c0-5.325-4.506-9.83-9.83-9.83zM613.581 348.467h49.357v49.357h-49.357v-49.357zM789.709 327.782h-68.813c-5.325 0-9.83 4.301-9.83 9.83v68.813c0 5.325 4.301 9.83 9.83 9.83h68.813c5.325 0 9.83-4.301 9.83-9.83v-68.813c0-5.325-4.301-9.83-9.83-9.83zM730.726 347.443h49.357v49.357h-49.357v-49.357zM672.563 182.784h-68.813c-5.325 0-9.83 4.301-9.83 9.83v68.813c0 5.325 4.301 9.83 9.83 9.83h68.813c5.325 0 9.83-4.301 9.83-9.83v-68.813c0-5.325-4.506-9.83-9.83-9.83zM613.581 202.445h49.357v49.357h-49.357v-49.357zM789.709 181.76h-68.813c-5.325 0-9.83 4.301-9.83 9.83v68.813c0 5.325 4.301 9.83 9.83 9.83h68.813c5.325 0 9.83-4.301 9.83-9.83v-68.813c0-5.325-4.301-9.83-9.83-9.83zM730.726 201.421h49.357v49.357h-49.357v-49.357zM502.17 101.478h-300.442c-5.325 0-9.83 4.301-9.83 9.83v518.349c0 5.325 4.301 9.83 9.83 9.83h300.237c5.325 0 9.83-4.301 9.83-9.83v-518.554c0-5.325-4.301-9.626-9.626-9.626zM211.558 120.934h280.781v498.893h-280.781v-498.893zM322.355 474.829h-68.813c-5.325 0-9.83 4.301-9.83 9.83v68.813c0 5.325 4.301 9.83 9.83 9.83h68.813c5.325 0 9.83-4.301 9.83-9.83v-68.813c0-5.325-4.301-9.83-9.83-9.83zM263.373 494.49h49.357v49.357h-49.357v-49.357zM439.706 473.805h-69.018c-5.325 0-9.83 4.301-9.83 9.83v68.813c0 5.325 4.301 9.83 9.83 9.83h68.813c5.325 0 9.83-4.301 9.83-9.83v-68.813c0-5.325-4.301-9.83-9.626-9.83zM380.518 493.466h49.357v49.357h-49.357v-49.357zM322.355 328.806h-68.813c-5.325 0-9.83 4.301-9.83 9.83v68.813c0 5.325 4.301 9.83 9.83 9.83h68.813c5.325 0 9.83-4.301 9.83-9.83v-68.813c0-5.325-4.301-9.83-9.83-9.83zM263.373 348.467h49.357v49.357h-49.357v-49.357zM439.706 327.782h-69.018c-5.325 0-9.83 4.301-9.83 9.83v68.813c0 5.325 4.301 9.83 9.83 9.83h68.813c5.325 0 9.83-4.301 9.83-9.83v-68.813c0-5.325-4.301-9.83-9.626-9.83zM380.518 347.443h49.357v49.357h-49.357v-49.357zM322.355 182.784h-68.813c-5.325 0-9.83 4.301-9.83 9.83v68.813c0 5.325 4.301 9.83 9.83 9.83h68.813c5.325 0 9.83-4.301 9.83-9.83v-68.813c0-5.325-4.301-9.83-9.83-9.83zM263.373 202.445h49.357v49.357h-49.357v-49.357zM439.706 181.76h-69.018c-5.325 0-9.83 4.301-9.83 9.83v68.813c0 5.325 4.301 9.83 9.83 9.83h68.813c5.325 0 9.83-4.301 9.83-9.83v-68.813c0-5.325-4.301-9.83-9.626-9.83zM380.518 201.421h49.357v49.357h-49.357v-49.357z" />
<glyph unicode="&#xe91d;" glyph-name="350" d="M880.026 81.203h-713.114v712.704h712.909v-712.704zM188.006 102.093h671.13v670.72h-671.13v-670.72zM869.376 606.106h-692.019c-5.734 0-10.445 4.71-10.445 10.445v163.226c0 5.734 4.71 10.445 10.445 10.445h692.019c5.734 0 10.445-4.71 10.445-10.445v-163.226c0.205-5.734-4.506-10.445-10.445-10.445zM188.006 626.995h671.13v142.336h-671.13v-142.336zM266.445 652.595c-24.986 0-45.466 20.48-45.466 45.466s20.48 45.466 45.466 45.466c24.986 0 45.466-20.48 45.466-45.466s-20.48-45.466-45.466-45.466zM266.445 722.637c-13.517 0-24.576-11.059-24.576-24.576s11.059-24.576 24.576-24.576c13.517 0 24.576 11.059 24.576 24.576-0.205 13.517-11.059 24.576-24.576 24.576zM380.314 652.595c-24.986 0-45.466 20.48-45.466 45.466s20.48 45.466 45.466 45.466c24.986 0 45.466-20.48 45.466-45.466s-20.48-45.466-45.466-45.466zM380.314 722.637c-13.517 0-24.576-11.059-24.576-24.576s11.059-24.576 24.576-24.576c13.517 0 24.576 11.059 24.576 24.576s-11.059 24.576-24.576 24.576zM494.182 652.595c-24.986 0-45.466 20.48-45.466 45.466s20.48 45.466 45.466 45.466c24.986 0 45.466-20.48 45.466-45.466s-20.275-45.466-45.466-45.466zM494.182 722.637c-13.517 0-24.576-11.059-24.576-24.576s11.059-24.576 24.576-24.576c13.517 0 24.576 11.059 24.576 24.576s-11.059 24.576-24.576 24.576zM608.051 652.595c-24.986 0-45.466 20.48-45.466 45.466s20.48 45.466 45.466 45.466c24.986 0 45.466-20.48 45.466-45.466s-20.275-45.466-45.466-45.466zM608.051 722.637c-13.517 0-24.576-11.059-24.576-24.576s11.059-24.576 24.576-24.576c13.517 0 24.576 11.059 24.576 24.576s-11.059 24.576-24.576 24.576zM781.926 652.595c-24.986 0-45.466 20.48-45.466 45.466s20.48 45.466 45.466 45.466c24.986 0 45.466-20.48 45.466-45.466s-20.275-45.466-45.466-45.466zM781.926 722.637c-13.517 0-24.576-11.059-24.576-24.576s11.059-24.576 24.576-24.576c13.517 0 24.576 11.059 24.576 24.576s-11.059 24.576-24.576 24.576zM690.995 606.106c-5.734 0-10.445 4.71-10.445 10.445v163.226c0 5.734 4.71 10.445 10.445 10.445s10.445-4.71 10.445-10.445v-163.226c0.205-5.734-4.506-10.445-10.445-10.445zM792.371 157.798h-551.117v373.965h551.117v-373.965zM262.349 178.688h509.133v332.186h-509.133v-332.186zM723.968 442.061h-414.31c-5.734 0-10.445 4.71-10.445 10.445s4.71 10.445 10.445 10.445h414.31c5.734 0 10.445-4.71 10.445-10.445 0.205-5.734-4.506-10.445-10.445-10.445z" />
<glyph unicode="&#xe91e;" glyph-name="351" d="M286.188 400.957c19.436 119.808 141.496 204.8 260.588 181.862 111.063-21.381 186.163-111.841 186.491-224.891 0.184-64.655 0.020-129.311 0.020-193.966 0-4.26 0-8.52 0-13.271 33.403 0 65.475 0 97.894 0 0 175.247 0 349.757 0 524.595-216.084 0-431.473 0-646.717 0 0-175.555 0-350.065 0-524.431 32.952 0 65.065 0 97.772 0 0 5.222 0 9.564 0 13.906 0 63.201-0.246 126.403 0.184 189.604 0.102 15.565 1.27 31.273 3.768 46.592v0zM888.832 833.29c-254.321 0-507.924 0-761.856 0 0-17.879 0-34.857 0-52.695 254.587 0 507.945 0 761.856 0 0 17.838 0 35.041 0 52.695v0zM187.802 701.071c47.206 0.307 94.413 0.143 141.619 0.143 165.581 0 331.162-0.020 496.742 0.102 4.485 0 11.018-0.225 13.128 2.417 12.8 16.036 24.576 32.891 37.745 50.872-246.866 0-491.602 0-738.161 0 11.694-16.036 22.63-30.433 32.809-45.363 4.178-6.124 8.806-8.212 16.118-8.172v0zM330.056 149.975c12.124-0.184 16.015-4.157 16.261-16.527 0.143-7.148 0.020-14.316 0.020-21.934 108.298 0 215.429 0 323.318 0 0 4.751 0 8.684 0 12.636 0.020 25.395 0.41 25.784 25.313 25.846 3.83 0 7.639 0 11.346 0 0 9.503 0 17.306 0 25.313-133.284 0-265.851 0-398.807 0 0-8.438 0-16.015 0-25.313 8.192 0 15.36 0.082 22.548-0.020v0zM552.837 411.136c-8.888-31.887-28.836-56.381-52.326-78.602-6.574-6.205-12.677-12.984-18.493-19.907-11.551-13.763-17.613-29.962-19.046-47.718-1.311-16.302 3.133-30.863 15.176-43.069-0.328 27.238 15.094 45.22 32.317 63.242 9.175 9.605 16.2 22.262 20.972 34.775 6.513 17.101 12.718 20.562 27.238 9.073 33.321-26.358 53.965-59.249 50.811-104.919 37.642 47.8 2.191 163.123-56.648 187.126v0zM320.819 71.967v45.343c0 4.567-3.707 8.274-8.274 8.274-14.684 0-28.979 0-43.274 0-38.83 0-77.66 0.041-116.49-0.041-4.403 0-10.138 1.577-10.117-6.103 0.020-15.524 0-31.048 0-47.473h178.156zM872.018 113.172c0 6.287-5.1 11.407-11.407 11.407h-154.747c-6.287 0-11.407-5.1-11.407-11.407v-41.165h177.541v41.165h0.020zM516.997 256.143c-8.786-9.912-14.397-20.808-13.169-34.386 1.249-13.763 9.626-21.34 23.368-21.361 10.854-0.020 21.811 0.819 32.563-0.225 11.121-1.085 17.101 4.239 20.705 13.394 2.089 5.304 3.748 11.018 4.28 16.671 2.724 29.266-11.284 51.323-29.88 69.96-13.066-15.258-25.272-29.839-37.868-44.052v0zM456.745 347.996c-8.663-13.66-15.77-26.644-24.637-38.298-7.414-9.728-16.978-17.818-25.436-26.767-12.472-13.21-19.517-28.652-18.35-47.165 0.922-14.643 13.722-33.69 25.518-34.796 15.176-1.434 30.597-0.348 47.206-0.348-35.697 48.067-25.948 92.078 6.984 135.045-4.096 4.485-7.926 8.663-11.284 12.329v0z" />
<glyph unicode="&#xe91f;" glyph-name="352" d="M389.857 512.287v-70.963c0-23.777-19.333-43.11-43.11-43.11h-114.975c-23.777 0-43.11 19.333-43.11 43.11v70.963c-51.794-33.26-86.262-91.218-86.262-157.184v-201.216c0 23.777 19.333 43.11 43.11 43.11s43.11-19.333 43.11-43.11v-57.487c0-5.059-1.044-9.851-2.642-14.377h206.52c-1.618 4.526-2.642 9.318-2.642 14.377v57.487c0 23.777 19.333 43.11 43.11 43.11s43.11-19.333 43.11-43.11v201.216c0 65.966-34.447 123.924-86.221 157.184zM346.726 168.264h-114.975c-7.946 0-14.377 6.431-14.377 14.377s6.431 14.377 14.377 14.377h114.975c7.946 0 14.377-6.431 14.377-14.377 0-7.967-6.431-14.377-14.377-14.377zM346.726 225.751h-114.975c-7.946 0-14.377 6.431-14.377 14.377s6.431 14.377 14.377 14.377h114.975c7.946 0 14.377-6.431 14.377-14.377s-6.431-14.377-14.377-14.377zM346.726 283.238h-114.975c-7.946 0-14.377 6.431-14.377 14.377s6.431 14.377 14.377 14.377h114.975c7.946 0 14.377-6.431 14.377-14.377s-6.431-14.377-14.377-14.377zM145.51 168.264c-7.926 0-14.377-6.451-14.377-14.377v-57.487c0-7.926 6.451-14.377 14.377-14.377s14.377 6.451 14.377 14.377v57.487c0 7.926-6.431 14.377-14.377 14.377zM432.968 168.264c-7.926 0-14.377-6.451-14.377-14.377v-57.487c0-7.926 6.451-14.377 14.377-14.377s14.377 6.451 14.377 14.377v57.487c0 7.926-6.451 14.377-14.377 14.377zM217.375 441.344c0-7.926 6.451-14.377 14.377-14.377h114.975c7.926 0 14.377 6.451 14.377 14.377v86.2c-22.139 9.257-46.408 14.418-71.864 14.418s-49.725-5.161-71.864-14.418v-86.2zM332.37 815.022c0 23.777-19.333 43.11-43.11 43.11s-43.11-19.333-43.11-43.11v-158.106h86.241v158.106zM346.726 628.183h-114.995c-7.946 0-14.377-6.431-14.377-14.377v-57.528c22.139 9.257 46.408 14.418 71.864 14.418s49.725-5.161 71.864-14.418v57.528c0.020 7.946-6.41 14.377-14.356 14.377zM792.289 224.297v1.454h-114.975v-1.454c-28.099-5.734-50.176-27.955-55.91-56.033h226.816c-5.775 28.078-27.832 50.299-55.931 56.033zM691.671 685.67v-143.729c-7.946 0-14.377-6.431-14.377-14.377v-273.080h114.975v273.080c0 7.946-6.431 14.377-14.377 14.377v143.729c0 95.109-77.373 172.462-172.462 172.462s-172.462-77.373-172.462-172.462v-158.106c33.546-36.536 71.864-71.864 71.864-71.864s14.377 6.431 14.377 14.377c0 53.903 0 215.593 0 215.593 0 47.555 38.687 86.241 86.241 86.241s86.221-38.687 86.221-86.241zM892.887 139.51h-316.191c-7.946 0-14.377-6.431-14.377-14.377v-57.487c0-7.946 6.431-14.377 14.377-14.377h316.191c7.946 0 14.377 6.431 14.377 14.377v57.487c0 7.946-6.431 14.377-14.377 14.377z" />
<glyph unicode="&#xe920;" glyph-name="353" d="M817.439 194.499c-26.153 0-51.098 0-77.373 0 0 79.135 0 157.184 0 236.81-151.798 0-302.305 0-454.84 0 0-77.804 0-156.303 0-236.339-27.361 0-52.716 0-79.258 0-0.287 5.816-0.799 11.325-0.799 16.835-0.041 88.986 0.266 177.951-0.389 266.916-0.102 12.739 4.157 18.596 15.258 23.962 92.385 44.79 184.525 90.051 276.48 135.721 10.588 5.263 18.821 6.021 29.757 0.573 92.488-45.998 185.283-91.382 278.036-136.827 7.987-3.912 14.787-6.574 14.705-18.452-0.614-94.024-0.369-188.047-0.43-282.071 0-1.802-0.573-3.625-1.147-7.127zM172.974 504.484c-5.059 36.024-5.079 36.024 25.334 51.016 99.369 48.968 198.861 97.731 297.984 147.19 11.448 5.714 20.070 5.55 31.416-0.102 99.697-49.725 199.721-98.796 299.663-148.050 28.836-14.213 28.856-14.193 23.347-50.012-7.025 3.195-13.824 6.062-20.439 9.339-101.581 50.237-203.223 100.332-304.558 151.040-10.158 5.079-17.592 4.977-27.709-0.082-101.356-50.688-202.998-100.803-304.579-151.020-6.615-3.256-13.414-6.124-20.46-9.318zM304.23 252.928c0 14.623 0 27.73 0 42.066 138.26 0 275.927 0 414.781 0 0-13.599 0-27.156 0-42.066-137.646 0-275.292 0-414.781 0zM719.442 412.283c0-12.8 0-24.556 0-37.417-138.486 0-276.193 0-414.863 0 0 12.616 0 24.351 0 37.417 137.646 0 275.313 0 414.863 0zM304.415 316.948c0 13.23 0 25.047 0 38.072 138.076 0 275.415 0 414.249 0 0-12.104 0-24.351 0-38.072-137.093 0-274.903 0-414.249 0zM304.251 194.785c0 12.759 0 23.941 0 36.495 138.281 0 275.948 0 414.781 0 0-11.796 0-23.45 0-36.495-137.728 0-275.395 0-414.781 0z" />
<glyph unicode="&#xe921;" glyph-name="354" d="M470.057 761.242c0-38.513-31.221-69.734-69.734-69.734s-69.734 31.221-69.734 69.734c0 38.513 31.221 69.734 69.734 69.734s69.734-31.221 69.734-69.734zM745.37 118.19c-21.074-5.079-42.496 7.987-47.575 29.102l-46.121 191.283h-195.133c-4.096 0-8.11 0.43-12.022 1.249-0.041 0.041-0.102 0.041-0.164 0.061-23.224 4.936-42.25 23.798-46.141 48.579l-32.44 207.278c-5.018 32.072 17.101 62.403 49.172 67.441 3.052 0.471 6.083 0.717 9.093 0.717 28.529 0 53.821-20.89 58.348-49.93l11.796-75.428h179.589c16.323 0 29.655-13.353 29.655-29.655 0-8.151-3.338-15.585-8.704-20.951s-12.78-8.704-20.951-8.704h-170.271l8.561-54.784h168.94c0.655 0 1.311 0 1.946-0.061 0.655-0.041 1.29-0.061 1.946-0.164 0.655-0.061 1.352-0.164 2.007-0.246 0.655-0.102 1.311-0.225 1.946-0.348 0.655-0.123 1.27-0.287 1.946-0.43 0 0 0 0 0.041 0 0.717-0.184 1.413-0.41 2.13-0.614 0.696-0.225 1.372-0.471 2.068-0.717 1.188-0.471 2.335-0.963 3.441-1.495 0.041 0 0.041-0.041 0.041-0.041 7.373-3.686 13.435-9.585 17.367-16.773 0.307-0.553 0.594-1.126 0.881-1.72 0.655-1.372 1.249-2.785 1.741-4.239 0.348-1.085 0.655-2.191 0.942-3.318l0.614-2.621 0.041-0.123 54.456-225.792c4.956-21.074-8.11-42.455-29.184-47.555zM456.54 338.575h-2.089c-3.441 0-6.738 0.43-9.933 1.249 3.912-0.799 7.926-1.249 12.022-1.249zM719.954 391.66l-0.614 2.621c-0.287 1.126-0.594 2.212-0.942 3.318 0.717-1.905 1.208-3.891 1.556-5.939zM715.776 403.558c-3.932 7.188-9.994 13.087-17.367 16.773 7.311-3.604 13.455-9.421 17.367-16.773zM647.229 252.293c-18.145-76.902-87.347-134.287-169.718-134.287-96.133 0-174.346 78.213-174.346 174.346 0 55.972 26.501 105.861 67.625 137.769l-8.704 57.979c-66.929-39.588-111.903-112.517-111.903-195.748 0-125.358 101.99-227.328 227.328-227.328 80.118 0 150.671 41.656 191.16 104.428l-21.443 82.842z" />
<glyph unicode="&#xe922;" glyph-name="356" d="M666.89 335.237h-46.244c6.984-12.616 10.977-27.095 10.977-42.496 0-2.028-0.164-4.014-0.307-6.001h24.904c-0.143 1.987-0.307 3.973-0.307 6.001 0.020 15.401 3.994 29.88 10.977 42.496zM834.171 286.74h25.211c11.489 0 20.787 9.236 20.787 20.623v7.229c0 11.387-9.298 20.623-20.787 20.623h-35.881c6.984-12.616 10.977-27.095 10.977-42.496 0-2.007-0.164-3.973-0.307-5.98zM464.056 335.237h-90.501v238.346c0 9.175-7.496 16.63-16.753 16.63h-159.642c-7.229 0-13.64-4.628-15.872-11.448l-40.653-124.621c-0.532-1.659-0.819-3.4-0.819-5.14v-113.766h-8.438c-11.469 0-20.787-9.236-20.787-20.623v-7.229c0-11.387 9.298-20.623 20.787-20.623h33.219c-0.143 1.987-0.307 3.973-0.307 6.001 0 48.865 40.059 88.617 89.272 88.617 49.234 0 89.272-39.752 89.272-88.617 0-2.028-0.164-4.014-0.307-6.001h110.858c-0.143 1.987-0.307 3.973-0.307 6.001 0 15.38 3.994 29.86 10.977 42.476zM320.287 461.558c0-2.417-1.802-4.383-4.014-4.383h-125.42c-2.826 0-4.751 3.072-3.748 5.939l30.986 88.74c0.594 1.7 2.089 2.826 3.748 2.826h94.413c2.212 0 4.014-1.966 4.014-4.383v-88.74zM321.597 292.741c0 37.171-30.515 67.4-68.035 67.4s-68.035-30.228-68.035-67.4c0-37.171 30.515-67.42 68.035-67.42 37.519 0.020 68.035 30.249 68.035 67.42zM253.563 266.301c-14.705 0-26.685 11.878-26.685 26.44s11.96 26.44 26.685 26.44c14.705 0 26.685-11.878 26.685-26.44 0-14.582-11.981-26.44-26.685-26.44zM609.772 292.741c0 37.171-30.249 67.4-67.441 67.4-37.171 0-67.42-30.228-67.42-67.4s30.249-67.42 67.42-67.42c37.192 0.020 67.441 30.249 67.441 67.42zM550.502 267.571c-13.865-4.485-28.815 3.154-33.3 17.019s3.154 28.815 17.019 33.3c13.865 4.485 28.815-3.154 33.3-17.019s-3.154-28.795-17.019-33.3zM745.185 360.141c-37.171 0-67.4-30.228-67.4-67.4s30.228-67.42 67.4-67.42c37.171 0 67.42 30.249 67.42 67.42s-30.249 67.4-67.42 67.4zM745.206 266.301c-14.582 0-26.44 11.878-26.44 26.44s11.858 26.44 26.44 26.44 26.44-11.878 26.44-26.44c0-14.582-11.878-26.44-26.44-26.44zM888.812 597.545l-29.041 70.676c-4.219 10.301-14.172 16.937-25.354 16.937h-190.464c-3.092 0-6.144-0.532-9.134-1.556l-102.277-36.045c-4.444-1.556-8.438-4.26-11.51-7.782l-71.946-82.063c-6.82-7.782-8.622-18.534-4.731-28.099l5.96-14.664h-27.525c-9.708 0-17.592-7.844-17.592-17.469v-115.22h28.508v104.387h28.099l22.528-55.46-20.746-48.927h30.925l12.288 28.979c0.102-0.020 0.184-0.061 0.287-0.082l120.607-17.674c1.331-0.184 2.662-0.287 3.973-0.287 3.727 0 7.434 0.758 10.834 2.232l90.87 38.953 20.050-52.122h30.515l-25.58 66.478 124.068 118.886c8.172 7.762 10.67 19.517 6.39 29.921z" />
<glyph unicode="&#xe923;" glyph-name="882" d="M611.612 960l41.716-128.586h135.335l-41.976-129.133 109.305-79.34-101.514-73.66c-5.81 9.745-11.621 19.516-17.431 29.313h-101.384c4.586 13.94 6.879 28.792 6.879 44.634 0 38.719-13.679 71.758-41.064 99.143s-60.424 41.064-99.143 41.064-71.758-13.679-99.143-41.064c-27.385-27.385-41.064-60.424-41.064-99.143 0-15.816 2.267-30.694 6.853-44.634-0.078-0.104-0.156-0.182-0.261-0.261h-101.931l-17.431-29.026-101.514 73.921 109.305 79.34-41.846 128.847h135.309l41.716 128.586 109.565-79.731 109.722 79.731zM647.517 458.448h-113.786l52.555 88.46h113.786l-52.555-88.46zM549.573 546.908l-52.555-88.46h-114.047l52.529 88.46h114.073zM346.258 458.448h-113.786l52.529 88.46h113.813l-52.555-88.46zM161.182 338.33l52.529 88.434h113.813l-52.555-88.434h-113.786zM478.284 426.764l-52.555-88.434h-114.047l52.529 88.434h114.073zM514.996 426.764h113.786l-52.529-88.434h-113.813l52.555 88.434zM443.707 306.62h113.786l-52.529-88.434h-113.813l52.555 88.434zM292.921 306.62h114.073l-52.555-88.434h-113.917l52.399 88.434zM203.68 218.186h-113.786l52.529 88.434h113.813l-52.555-88.434zM697.571 187.023c12.637 43.826 25.248 87.652 37.885 131.478h-8.182l-149.040-186.535h84.5l-37.885-131.348h8.182l149.040 186.404h-84.5zM845.803-52.171l0.182-12.611-692.75 0.73v67.146s0.026 2.527 0.026 2.527v180.855h369.265l0.391 0.391 204.904 344.304v0.651l0.261-0.261 204.904-345.111h-87.522l0.13-0.261v-180.464l-0.104-30.902 0.313-26.994z" />
<glyph unicode="&#xe924;" glyph-name="884" d="M563.2 658.347l-125.867-167.68 96-128c14.080-18.773 10.24-45.653-8.533-59.733s-45.653-10.667-59.733 8.533c-44.8 59.733-98.56 130.987-132.267 176.64-17.067 22.613-51.2 22.613-68.267 0l-170.667-227.413c-20.907-28.587-0.853-68.693 34.133-68.693h768c34.987 0 55.040 40.107 34.133 68.267l-298.667 398.080c-17.067 23.040-51.2 23.040-68.267 0z" />
<glyph unicode="&#xe925;" glyph-name="885" d="M784.476 936.724l-13.394-13.384 215.9-215.9 26.778 26.788-108.114 108.104-108.114 107.776-13.056-13.384zM732.928 884.5c-41.503-45.189-52.89-108.114-30.126-164.352l7.363-18.412-227.615-227.932c-125.522-125.522-229.622-231.629-231.629-235.643-15.401-30.792 20.081-66.273 50.872-50.883 4.014 2.007 110.121 106.107 235.643 231.629l227.942 227.615 18.412-7.363c60.252-24.433 128.195-9.042 174.725 39.496l9.708 10.711-106.762 106.772c-58.911 58.911-108.114 107.11-109.117 107.11-1.341 0-10.045-8.366-19.415-18.749zM824.637 759.316c71.629-71.967 70.287-69.622 45.189-76.984-17.408-5.018-43.51-4.014-62.259 2.345-23.101 7.7-51.886 36.823-59.587 60.58-8.704 25.774-3.676 80.998 7.035 80.998 1.679 0.010 32.809-30.116 69.622-66.939zM146.493 408.863c-62.935-63.601-96.072-99.41-104.438-113.132-18.749-31.795-29.788-68.28-31.468-107.11-2.007-43.848 4.352-74.312 24.433-115.476 12.718-25.774 20.756-36.823 42.844-58.911 22.088-22.098 33.137-29.788 58.911-42.506 77.988-38.492 160.666-33.812 230.963 13.056 13.056 8.704 56.904 49.541 110.459 103.096l88.699 89.037-117.146 117.146-61.921-61.594c-34.14-33.802-67.277-64.266-73.636-67.615-40.837-21.094-91.709 10.711-91.709 57.231 0 25.436 10.045 39.496 76.319 105.441l58.911 58.573-57.59 57.58c-31.795 31.795-58.573 57.907-59.576 57.907s-43.51-41.841-94.054-92.723z" />
<glyph unicode="&#xe926;" glyph-name="excel" horiz-adv-x="768" d="M448 687.787v272.213h-400.213c-26.453 0-47.787-21.333-47.787-47.787v-928.427c0-26.453 21.333-47.787 47.787-47.787h672.427c26.453 0 47.787 21.333 47.787 47.787v656.213h-272.213c-26.453 0-47.787 21.333-47.787 47.787zM568.32 475.307l-120.32-186.88 120.32-186.88c10.24-16.213-0.853-36.693-20.48-36.693h-69.973c-8.533 0-17.067 5.12-21.333 12.8-39.253 72.533-73.387 137.387-73.387 137.387-12.8-29.867-19.627-40.107-73.387-137.387-4.267-7.68-11.947-12.8-21.333-12.8h-69.973c-18.773 0-30.72 21.333-20.48 36.693l120.32 186.88-120.32 186.88c-10.24 16.213 0 36.693 20.48 36.693h69.973c8.533 0 17.067-5.12 21.333-12.8 52.053-97.28 40.107-67.413 73.387-137.387 0 0 11.947 23.040 73.387 137.387 4.267 7.68 12.8 12.8 21.333 12.8h69.973c18.773 0 30.72-20.48 20.48-36.693zM768 715.947v-11.947h-256v256h11.947c12.8 0 24.747-5.12 34.133-13.653l195.413-196.267c9.387-9.387 13.653-21.333 13.653-34.133h0.853z" />
<glyph unicode="&#xe927;" glyph-name="higharc" horiz-adv-x="1535" d="M767.361-64h-736.666c-36.663 0-30.694-4.263-30.694 30.694v964.316c0 34.958 0 28.989 28.989 28.989h1456.28c11.084 0 21.316-0.853 32.4 0 13.642 0.853 17.052-5.116 17.052-17.905 0-277.955 0-556.763 0-834.718 0-51.157 0-102.315 0-153.472 0-12.789-4.263-17.052-17.052-17.052-31.547 0-63.094 0-95.494 0h-654.814s0 0 0 0zM769.918 21.262v0c191.84 0 383.68 0 575.52 0 16.2 0 18.758 5.968 18.758 19.61 0 59.684-11.084 118.515-31.547 173.935-73.326 203.777-214.861 334.228-425.459 386.238-122.778 30.694-243.85 22.168-362.365-23.873-91.231-35.81-167.114-92.083-231.061-165.409-86.115-98.052-132.157-214.008-142.388-343.607-3.41-46.042-2.558-46.894 44.336-46.894h554.205z" />
<glyph unicode="&#xe928;" glyph-name="LexarX" horiz-adv-x="1454" d="M1452.116-64h-318.441c-5.308 0-9.382 0.634-11.719 6.076-0.801 1.87-2.938 3.138-4.507 4.708-50.681 50.714-101.362 101.428-152.076 152.143-78.024 78.325-155.949 156.717-233.706 235.209-1.87 1.903-3.572 3.973-6.343 7.145-3.339-3.839-5.909-7.312-8.948-10.35-35.523-35.623-71.214-71.113-106.837-106.837-80.362-80.762-160.656-161.591-240.951-242.453-13.655-13.755-26.709-27.978-40.531-41.7-2.337-2.237-5.375-3.572-8.614-3.739-105.268-0.2-210.536-0.2-315.804 0h-3.639l725.524 725.324 728.729-722.419-2.137-3.105zM10.016 960h317.406c4.774 0.167 9.382-1.769 12.587-5.308 90.978-91.246 182.057-182.358 273.169-273.336q8.080-8.046-0.267-16.393c-49.479-49.479-98.958-98.991-148.403-148.57-4.34-4.374-6.677-4.941-11.518-0.234-145.599 145.833-291.298 291.565-437.064 437.164-1.536 1.636-2.938 3.339-5.909 6.677zM1441.566 957.796l-446.646-446.713-161.391 161.391c1.603 3.038 3.506 5.909 5.676 8.547 91.246 91.246 182.524 182.524 273.77 273.77 2.971 3.405 7.312 5.308 11.819 5.208 102.831-0.167 205.628-0.167 308.425 0h7.512l0.835-2.204zM708.23 45.708h-82.164v83.633h82.164v-83.633zM742.918 129.676h82.098v-83.9h-82.098v83.9zM626.032-63.533v82.265h82.198v-82.265h-82.198zM825.283 18.498v-81.897h-82.431v81.897h82.431z" />
<glyph unicode="&#xe929;" glyph-name="xodo" horiz-adv-x="1008" d="M0-63.856c78.998 82.326 155.655 162.249 232.497 242.336-65.914 97.69-49.626 194.415 0.678 292.618 26.251-20.869 51.454-40.896 78.752-62.587-3.245 37.753-6.265 72.857-9.531 111.041 27.175-23.046 52.008-44.1 78.834-66.818-0.822 12.797-1.315 23.108-2.157 33.399-3.738 46.031-7.744 92.062-11.030 138.134-0.288 4.026 2.937 9.654 6.285 12.386 51.043 41.697 106.646 76.575 163.953 108.823 118.498 66.695 242.931 120.736 368.31 172.724 31.242 12.961 62.402 26.107 93.603 39.15 2.136 0.883 4.375 1.52 7.662 2.65-0.411-2.814-0.37-4.765-1.006-6.491-37.26-101.326-73.288-203.144-112.274-303.792-38.431-99.21-83.271-195.606-139.592-286.21-11.010-17.706-23.272-34.611-34.652-52.090-3.574-5.484-7.703-7.395-14.317-7.21-52.008 1.541-104.017 2.67-156.025 3.903-3.738 0.082-7.497 0-14.686 0 24.279-25.552 46.853-49.317 71.234-74.993-37.63 1.212-73.124 2.362-111.74 3.615 22.985-25.758 44.182-49.543 65.421-73.329-65.031-46.996-187.287-85.078-288.49-20.52-10.537-9.284-21.444-17.562-30.831-27.339-55.254-57.493-110.076-115.416-165.371-172.868-3.471-3.615-9.757-6.080-14.851-6.265-19.082-0.719-38.226-0.288-60.656-0.288h-0.021z" />
</font>
</defs>
</svg>
