
<svg id="Layer_2" xmlns="http://www.w3.org/2000/svg" viewBox="0 0 18 12.01">
  <g id="Layer_2-2" data-name="Layer_2">
    <path class="cls-1" d="M9,12.01H.36c-.43,0-.36.05-.36-.36V.34C0-.07,0,0,.34,0h17.08c.13,0,.25.01.38,0,.16-.01.2.06.2.21,0,3.26,0,6.53,0,9.79,0,.6,0,1.2,0,1.8,0,.15-.05.2-.2.2-.37,0-.74,0-1.12,0h-7.68s0,0,0,0ZM9.03,11.01h0c2.25,0,4.5,0,6.75,0,.19,0,.22-.07.22-.23,0-.7-.13-1.39-.37-2.04-.86-2.39-2.52-3.92-4.99-4.53-1.44-.36-2.86-.26-4.25.28-1.07.42-1.96,1.08-2.71,1.94-1.01,1.15-1.55,2.51-1.67,4.03-.04.54-.03.55.52.55h6.5,0Z"/>
  </g>
</svg>