<?xml version="1.0" encoding="UTF-8"?><svg id="Layer_1" xmlns="http://www.w3.org/2000/svg" viewBox="0 0 435.58 306.71"><defs><style>.cls-1{fill:#fff;}</style></defs><path class="cls-1" d="M434.94,306.71h-95.38c-1.59,0-2.81-.19-3.51-1.82-.24-.56-.88-.94-1.35-1.41-15.18-15.19-30.36-30.38-45.55-45.57-23.37-23.46-46.71-46.94-70-70.45-.56-.57-1.07-1.19-1.9-2.14-1,1.15-1.77,2.19-2.68,3.1-10.64,10.67-21.33,21.3-32,32-24.07,24.19-48.12,48.4-72.17,72.62-4.09,4.12-8,8.38-12.14,12.49-.7,.67-1.61,1.07-2.58,1.12-31.53,.06-63.06,.06-94.59,0H0L217.31,89.4l218.27,216.38-.64,.93Z"/><path class="cls-1" d="M3,0H98.07c1.43-.05,2.81,.53,3.77,1.59,27.25,27.33,54.53,54.62,81.82,81.87q2.42,2.41-.08,4.91c-14.82,14.82-29.64,29.65-44.45,44.5-1.3,1.31-2,1.48-3.45,.07C92.07,89.26,48.43,45.61,4.77,2,4.31,1.51,3.89,1,3,0Z"/><path class="cls-1" d="M431.78,.66l-133.78,133.8-48.34-48.34c.48-.91,1.05-1.77,1.7-2.56,27.33-27.33,54.67-54.67,82-82,.89-1.02,2.19-1.59,3.54-1.56,30.8,.05,61.59,.05,92.38,0h2.25l.25,.66Z"/><path class="cls-1" d="M212.13,273.85h-24.61v-25.05h24.61v25.05Z"/><path class="cls-1" d="M222.52,248.7h24.59v25.13h-24.59v-25.13Z"/><path class="cls-1" d="M187.51,306.57v-24.64h24.62v24.64h-24.62Z"/><path class="cls-1" d="M247.19,282v24.53h-24.69v-24.53h24.69Z"/></svg>