<?xml version="1.0" encoding="UTF-8"?>
<svg id="Layer_2" xmlns="http://www.w3.org/2000/svg" viewBox="0 0 490.67 498.53">
  <defs>
    <style>
      .cls-1 {
        fill: #fff;
      }
    </style>
  </defs>
  <g id="Layer_2-2" data-name="Layer_2">
    <path class="cls-1" d="M0,498.46c38.46-40.08,75.78-78.99,113.19-117.98-32.09-47.56-24.16-94.65.33-142.46,12.78,10.16,25.05,19.91,38.34,30.47-1.58-18.38-3.05-35.47-4.64-54.06,13.23,11.22,25.32,21.47,38.38,32.53-.4-6.23-.64-11.25-1.05-16.26-1.82-22.41-3.77-44.82-5.37-67.25-.14-1.96,1.43-4.7,3.06-6.03,24.85-20.3,51.92-37.28,79.82-52.98,57.69-32.47,118.27-58.78,179.31-84.09,15.21-6.31,30.38-12.71,45.57-19.06,1.04-.43,2.13-.74,3.73-1.29-.2,1.37-.18,2.32-.49,3.16-18.14,49.33-35.68,98.9-54.66,147.9-18.71,48.3-40.54,95.23-67.96,139.34-5.36,8.62-11.33,16.85-16.87,25.36-1.74,2.67-3.75,3.6-6.97,3.51-25.32-.75-50.64-1.3-75.96-1.9-1.82-.04-3.65,0-7.15,0,11.82,12.44,22.81,24.01,34.68,36.51-18.32-.59-35.6-1.15-54.4-1.76,11.19,12.54,21.51,24.12,31.85,35.7-31.66,22.88-91.18,41.42-140.45,9.99-5.13,4.52-10.44,8.55-15.01,13.31-26.9,27.99-53.59,56.19-80.51,84.16-1.69,1.76-4.75,2.96-7.23,3.05-9.29.35-18.61.14-29.53.14h-.01Z"/>
  </g>
</svg>